<svg width="326" height="40" viewBox="0 0 326 40" fill="none" xmlns="http://www.w3.org/2000/svg">
<path fill-rule="evenodd" clip-rule="evenodd" d="M10.6121 9.17299C10.6121 4.97685 14.0824 1.5658 18.3751 1.5658C22.6633 1.5658 26.131 4.96984 26.1381 9.16005C25.8826 11.9033 24.6238 13.4006 24.0683 13.7982L12.4779 13.7509C12.1304 13.4079 11.6488 12.8108 11.2598 12.0535C10.8382 11.2327 10.5345 10.2416 10.6113 9.19366L10.6121 9.18334V9.17299ZM11.7083 13.7478C11.3942 13.3737 11.0503 12.884 10.7565 12.3121C10.3048 11.4326 9.96243 10.3405 10.0463 9.1627C10.0519 4.64843 13.7839 1 18.3751 1C22.9698 1 26.704 4.65398 26.704 9.17299V9.18596L26.7028 9.19887C26.4915 11.4985 25.6062 13.0199 24.896 13.8016L33.3706 13.8361C33.3855 13.8362 33.4004 13.8374 33.4151 13.8398C34.0521 13.9441 34.9707 14.2316 35.8084 14.7675C35.8283 14.7268 35.849 14.6826 35.8697 14.6355C35.9767 14.3919 36.0706 14.1001 36.0706 13.8436C36.0706 13.7665 36.0712 13.6839 36.0718 13.597C36.0737 13.3192 36.076 12.9976 36.0607 12.6706C36.0405 12.2381 35.9906 11.8312 35.8835 11.5391C35.7728 11.2369 35.4872 10.6847 35.0015 10.2122C34.5205 9.74433 33.8523 9.36213 32.9609 9.36213C32.2573 9.36213 31.5936 9.36554 30.9844 9.36867H30.9842H30.984H30.9838C29.9017 9.37423 28.9915 9.3789 28.3348 9.36203L28.3494 8.79642C28.9978 8.81307 29.8926 8.80846 30.9666 8.80292C31.5775 8.79977 32.2465 8.79632 32.9609 8.79632C34.0316 8.79632 34.8348 9.26068 35.3961 9.80668C35.9527 10.3482 36.2802 10.9772 36.4148 11.3444C36.553 11.7216 36.6052 12.2007 36.6259 12.6443C36.6419 12.9881 36.6395 13.3317 36.6375 13.6113L36.6375 13.6123C36.637 13.6957 36.6364 13.7734 36.6364 13.8436C36.6364 14.2172 36.5055 14.5948 36.3877 14.863C36.3486 14.9522 36.3094 15.0324 36.2744 15.1001C37.1224 15.7761 37.8122 16.7611 37.8622 18.1249C37.9605 20.8068 37.9034 29.5872 37.8626 33.8301C38.0633 35.5302 36.3532 38.3315 32.2114 38.7345C29.122 39.0351 23.8909 39.0345 18.7893 38.955C16.2549 38.9154 13.7536 38.8564 11.5547 38.8046L11.5544 38.8046C9.31564 38.7518 7.39044 38.7064 6.0631 38.6964C6.04294 38.6963 6.02285 38.694 6.00318 38.6896C5.15685 38.4993 3.92164 38.0446 2.8909 37.2694C1.85783 36.4924 1 35.3678 1 33.846V33.8455L1.2829 33.846C1 33.8455 1 33.8454 1 33.8453V33.8449L1.00001 33.843L1.00002 33.8358L1.00007 33.8068L1.00028 33.693L1.0011 33.2533L1.00414 31.6191L1.01445 26.0774L1.04088 11.8741C1.04094 11.8371 1.04824 11.8006 1.06236 11.7665C1.40731 10.9326 2.03871 10.246 2.68444 9.75035C3.32619 9.25778 4.01421 8.92955 4.50181 8.84008C4.9575 8.75646 5.89164 8.71722 6.68673 8.6977C7.08969 8.68781 7.46549 8.68287 7.74045 8.6804C7.87798 8.67917 7.99038 8.67855 8.06847 8.67824L8.15875 8.67797L8.18244 8.67794L8.18855 8.67793L8.19013 8.67793H8.19054H8.19065L8.1907 8.96083L8.19068 9.24373H8.1906H8.19025L8.18881 9.24374L8.18296 9.24374L8.1598 9.24377L8.07071 9.24404C7.99345 9.24435 7.882 9.24496 7.74554 9.24618C7.47253 9.24864 7.09981 9.25354 6.70061 9.26334C5.89138 9.2832 5.00659 9.32271 4.60392 9.3966C4.23316 9.46463 3.62697 9.74018 3.02894 10.1992C2.47425 10.6249 1.95452 11.1874 1.64733 11.842C1.7054 11.9165 1.79185 12.02 1.90491 12.144C2.0921 12.3492 2.33873 12.5954 2.61847 12.8322C2.89893 13.0695 3.20719 13.2927 3.51769 13.4561C3.83014 13.6205 4.1275 13.7152 4.39136 13.718L4.39215 13.718L11.7083 13.7478ZM1.5658 33.846C1.5658 35.1278 2.28164 36.1032 3.23099 36.8172C4.17097 37.5242 5.31025 37.9497 6.09804 38.1309C7.42438 38.1413 9.3463 38.1866 11.575 38.2391H11.5751L11.5757 38.2391C13.7767 38.291 16.277 38.3499 18.7982 38.3892C23.9059 38.4689 29.1045 38.4683 32.1566 38.1714C36.0919 37.7884 37.4639 35.1762 37.2989 33.8818C37.2972 33.869 37.2965 33.8562 37.2966 33.8433C37.3375 29.6002 37.3946 20.8149 37.2968 18.1456C37.2517 16.9157 36.6018 16.0399 35.7807 15.4344C34.963 14.8314 33.992 14.5112 33.3455 14.4018L4.38821 14.2838L4.38658 14.2838C3.99891 14.2799 3.61012 14.1441 3.2542 13.9568C2.89601 13.7683 2.55331 13.5183 2.25295 13.2641C2.0078 13.0566 1.7872 12.8432 1.60523 12.6522L1.58025 26.0785L1.56994 31.6201L1.5669 33.2544L1.56609 33.6941L1.56587 33.8079L1.56582 33.8368L1.56581 33.8441L1.5658 33.8459L1.5658 33.846ZM18.614 3.12628C18.7702 3.12628 18.8969 3.25293 18.8969 3.40918V4.43502C19.1993 4.46296 19.5036 4.53398 19.8086 4.63756C20.5391 4.88567 20.9464 5.20192 21.195 5.68074C21.2669 5.81942 21.2129 5.99019 21.0742 6.06216C20.9355 6.13414 20.7647 6.08007 20.6928 5.9414C20.5325 5.63271 20.2693 5.39157 19.6266 5.17331C19.2698 5.05212 18.933 4.98756 18.614 4.98757C18.1863 4.98759 17.7789 5.10346 17.3846 5.37475L17.3197 5.41935C17.1524 5.53409 17.048 5.60571 16.9637 5.69026C16.8817 5.77267 16.8161 5.8718 16.7582 6.05416C16.668 6.33814 16.6506 6.56951 16.7068 6.77155C16.762 6.97023 16.8987 7.17804 17.1895 7.39593C17.307 7.48392 17.4613 7.54321 17.6585 7.58316C17.857 7.62336 18.079 7.64043 18.326 7.65669L18.4045 7.66177C18.8596 7.69098 19.4025 7.72583 19.8501 7.96298C20.2474 8.17349 20.5754 8.35853 20.7788 8.63659C20.9952 8.93254 21.0434 9.28919 21.0221 9.76135C20.9989 10.2754 20.8219 10.6711 20.5395 10.9493C20.2608 11.2238 19.902 11.362 19.5493 11.4073C19.497 11.414 19.4445 11.421 19.3918 11.428C19.229 11.4497 19.0642 11.4716 18.8969 11.487V12.4655C18.8969 12.6217 18.7702 12.7484 18.614 12.7484C18.4578 12.7484 18.3311 12.6217 18.3311 12.4655V11.5057C18.1035 11.4972 17.8643 11.4667 17.6046 11.401C16.6547 11.1609 15.8685 10.5679 15.6383 10.3461C15.5257 10.2377 15.5224 10.0586 15.6308 9.94608C15.7392 9.83356 15.9183 9.83021 16.0308 9.93861C16.2094 10.1106 16.9117 10.6423 17.7432 10.8525C18.0563 10.9316 18.3324 10.9502 18.6032 10.9398C18.8356 10.9309 19.0594 10.9013 19.3086 10.8682C19.3634 10.861 19.4195 10.8535 19.4772 10.8461C19.7376 10.8127 19.9714 10.7147 20.1424 10.5462C20.3097 10.3814 20.4392 10.1274 20.4569 9.73584C20.4764 9.30237 20.4224 9.10777 20.3221 8.9706C20.2087 8.81553 20.0053 8.68557 19.5852 8.46295C19.2479 8.28424 18.8166 8.25592 18.3181 8.22319L18.2889 8.22127C18.0454 8.20525 17.7872 8.18651 17.5462 8.1377C17.304 8.08865 17.0598 8.00575 16.8503 7.84873C16.4871 7.57661 16.2585 7.27164 16.1616 6.92299C16.0657 6.57769 16.1096 6.22718 16.2189 5.88297C16.3003 5.62665 16.4088 5.44566 16.5629 5.29096C16.6872 5.16612 16.8398 5.06187 16.998 4.95378L17.0639 4.90863C17.4683 4.63039 17.8924 4.48011 18.3311 4.43584V3.40918C18.3311 3.25293 18.4578 3.12628 18.614 3.12628ZM28.8881 1.51302L28.9137 1.79476L28.888 1.51303C28.7324 1.5272 28.6178 1.66484 28.632 1.82043C28.6461 1.97603 28.7838 2.09067 28.9394 2.07649L28.9137 1.79476L28.9394 2.07649L28.9395 2.07649L28.9398 2.07645L28.9413 2.07632L28.9476 2.07575L28.9725 2.07355L29.0679 2.06537C29.1503 2.05843 29.2687 2.04882 29.4117 2.03813C29.6978 2.01674 30.0816 1.99113 30.4734 1.97408C30.8667 1.95697 31.2622 1.94877 31.574 1.96121C31.7308 1.96746 31.8584 1.97866 31.951 1.99451C31.9696 1.99769 31.9857 2.00089 31.9995 2.00397C32.0003 2.0127 32.001 2.02247 32.0016 2.03334C32.0066 2.12224 32.0013 2.24803 31.9856 2.40564C31.9544 2.71861 31.8862 3.11769 31.8076 3.51598C31.7293 3.91261 31.642 4.30153 31.5741 4.59177C31.5402 4.73675 31.5112 4.8568 31.4908 4.94049L31.4669 5.03726L31.4606 5.06248L31.459 5.06882L31.4586 5.07037L31.4585 5.07073L31.4585 5.0708C31.4202 5.22228 31.5119 5.37613 31.6634 5.41443C31.8149 5.45273 31.9687 5.36099 32.007 5.20952L31.7328 5.14016L32.0071 5.20945L32.0071 5.20932L32.0072 5.20884L32.0077 5.20705L32.0094 5.20022L32.0159 5.17398L32.0404 5.07494C32.0612 4.98967 32.0907 4.86773 32.1251 4.7206C32.1938 4.42663 32.2827 4.03085 32.3627 3.62557C32.4424 3.22194 32.5147 2.8019 32.5486 2.46177C32.5654 2.29284 32.5739 2.1336 32.5666 2.00187C32.5629 1.93628 32.5549 1.86815 32.538 1.80489C32.5227 1.74725 32.4916 1.66065 32.4193 1.59102C32.3579 1.53181 32.2839 1.50025 32.2314 1.48205C32.1737 1.46205 32.1101 1.4477 32.0465 1.43681C31.919 1.41499 31.7635 1.40252 31.5966 1.39586C31.2611 1.38247 30.8472 1.39148 30.4488 1.40881C30.0491 1.4262 29.6591 1.45225 29.3695 1.4739C29.2245 1.48474 29.1044 1.4945 29.0205 1.50155L28.923 1.50992L28.8972 1.5122L28.8904 1.51281L28.8887 1.51297L28.8882 1.51301L28.8881 1.51302ZM30.4735 3.87014C30.5981 3.77585 30.6227 3.59842 30.5284 3.47384C30.4341 3.34926 30.2567 3.3247 30.1321 3.419L27.2721 5.58367L27.6136 6.03482L30.4735 3.87014ZM31.9907 1.94839L31.9897 1.94543C31.9897 1.94537 31.9901 1.9463 31.9907 1.94839Z" fill="#162C3A"/>
<path d="M26.1381 9.16005L26.4198 9.1863C26.4206 9.17741 26.4211 9.1685 26.421 9.15957L26.1381 9.16005ZM24.0683 13.7982L24.0671 14.0811C24.1266 14.0813 24.1846 14.0628 24.2329 14.0282L24.0683 13.7982ZM12.4779 13.7509L12.2791 13.9523C12.3318 14.0043 12.4027 14.0335 12.4767 14.0338L12.4779 13.7509ZM11.2598 12.0535L11.5115 11.9243L11.5115 11.9243L11.2598 12.0535ZM10.6113 9.19366L10.8934 9.21434L10.8934 9.21433L10.6113 9.19366ZM10.6121 9.18334L10.8942 9.20401C10.8947 9.19713 10.895 9.19024 10.895 9.18334H10.6121ZM10.7565 12.3121L11.0082 12.1828L11.0082 12.1828L10.7565 12.3121ZM11.7083 13.7478L11.7071 14.0307C11.8173 14.0312 11.9177 13.9676 11.9645 13.8678C12.0112 13.7681 11.9958 13.6503 11.925 13.5659L11.7083 13.7478ZM10.0463 9.1627L10.3284 9.18278C10.3289 9.17622 10.3291 9.16964 10.3292 9.16305L10.0463 9.1627ZM26.704 9.18596L26.9857 9.21184C26.9865 9.20323 26.9869 9.1946 26.9869 9.18596H26.704ZM26.7028 9.19887L26.9845 9.22476L26.9845 9.22475L26.7028 9.19887ZM24.896 13.8016L24.6866 13.6113C24.6115 13.694 24.5921 13.8132 24.6371 13.9155C24.6821 14.0178 24.7831 14.084 24.8949 14.0845L24.896 13.8016ZM33.3706 13.8361L33.3717 13.5532L33.3717 13.5532L33.3706 13.8361ZM33.4151 13.8398L33.3694 14.119L33.3694 14.119L33.4151 13.8398ZM35.8084 14.7675L35.656 15.0058C35.7239 15.0492 35.8072 15.0616 35.8848 15.0399C35.9625 15.0181 36.0271 14.9642 36.0626 14.8918L35.8084 14.7675ZM35.8697 14.6355L35.6107 14.5218L35.6107 14.5218L35.8697 14.6355ZM36.0718 13.597L35.7889 13.595L35.7889 13.5951L36.0718 13.597ZM36.0607 12.6706L35.7781 12.6838L35.7781 12.6838L36.0607 12.6706ZM35.8835 11.5391L36.1491 11.4417L36.1491 11.4417L35.8835 11.5391ZM35.0015 10.2122L35.1988 10.0095L35.1988 10.0095L35.0015 10.2122ZM32.9609 9.36213L32.9609 9.07923L32.9609 9.07923L32.9609 9.36213ZM30.9844 9.36867L30.9844 9.65157L30.9858 9.65157L30.9844 9.36867ZM30.9838 9.36867L30.9838 9.08576L30.9823 9.08577L30.9838 9.36867ZM28.3348 9.36203L28.052 9.35477C28.0501 9.42977 28.078 9.50247 28.1297 9.55687C28.1814 9.61127 28.2526 9.64292 28.3276 9.64484L28.3348 9.36203ZM28.3494 8.79642L28.3566 8.51361C28.2004 8.5096 28.0706 8.63296 28.0666 8.78915L28.3494 8.79642ZM30.9666 8.80292L30.9651 8.52003L30.9651 8.52003L30.9666 8.80292ZM32.9609 8.79632L32.9609 8.51342L32.9609 8.51342L32.9609 8.79632ZM35.3961 9.80668L35.5933 9.6039L35.5933 9.6039L35.3961 9.80668ZM36.4148 11.3444L36.6804 11.2471L36.6804 11.2471L36.4148 11.3444ZM36.6259 12.6443L36.3433 12.6575L36.3433 12.6575L36.6259 12.6443ZM36.6375 13.6113L36.9204 13.6144L36.9204 13.6133L36.6375 13.6113ZM36.6375 13.6123L36.3546 13.6092L36.3546 13.6103L36.6375 13.6123ZM36.3877 14.863L36.6467 14.9768L36.6467 14.9768L36.3877 14.863ZM36.2744 15.1001L36.0231 14.9702C35.9611 15.0901 35.9925 15.2372 36.0981 15.3213L36.2744 15.1001ZM37.8622 18.1249L38.1449 18.1146L38.1449 18.1146L37.8622 18.1249ZM37.8626 33.8301L37.5797 33.8274C37.5795 33.8394 37.5802 33.8514 37.5816 33.8633L37.8626 33.8301ZM32.2114 38.7345L32.184 38.4529L32.184 38.4529L32.2114 38.7345ZM18.7893 38.955L18.7849 39.2378L18.7849 39.2378L18.7893 38.955ZM11.5547 38.8046L11.5614 38.5218L11.5582 38.5217L11.5547 38.8046ZM11.5544 38.8046L11.5478 39.0874L11.5509 39.0875L11.5544 38.8046ZM6.0631 38.6964L6.06522 38.4136L6.06519 38.4136L6.0631 38.6964ZM6.00318 38.6896L5.94114 38.9656L5.94115 38.9656L6.00318 38.6896ZM2.8909 37.2694L3.06094 37.0433L3.06094 37.0433L2.8909 37.2694ZM1 33.8455L1.00053 33.5626C0.925405 33.5625 0.853313 33.5922 0.800145 33.6453C0.746976 33.6983 0.717098 33.7704 0.717098 33.8455H1ZM1.28238 34.1289C1.43862 34.1292 1.56551 34.0028 1.5658 33.8465C1.56609 33.6903 1.43967 33.5634 1.28343 33.5631L1.28238 34.1289ZM1 33.8449L0.717098 33.8441V33.8449H1ZM1.00001 33.843L1.28291 33.8438L1.28291 33.8436L1.00001 33.843ZM1.00002 33.8358L0.717117 33.8352L0.717117 33.8352L1.00002 33.8358ZM1.00007 33.8068L1.28297 33.8073L1.28297 33.8073L1.00007 33.8068ZM1.00028 33.693L0.717383 33.6925L0.717383 33.6925L1.00028 33.693ZM1.0011 33.2533L1.284 33.2539L1.284 33.2539L1.0011 33.2533ZM1.00414 31.6191L0.721241 31.6185L1.00414 31.6191ZM1.01445 26.0774L1.29735 26.078L1.01445 26.0774ZM1.04088 11.8741L0.757974 11.8736L0.757974 11.8736L1.04088 11.8741ZM1.06236 11.7665L0.800944 11.6583L0.800943 11.6583L1.06236 11.7665ZM2.68444 9.75035L2.85669 9.97477L2.85669 9.97477L2.68444 9.75035ZM4.50181 8.84008L4.55286 9.11834L4.55286 9.11834L4.50181 8.84008ZM6.68673 8.6977L6.67979 8.41489L6.67979 8.41489L6.68673 8.6977ZM7.74045 8.6804L7.73791 8.39751L7.73791 8.39751L7.74045 8.6804ZM8.06847 8.67824L8.06762 8.39534L8.06735 8.39534L8.06847 8.67824ZM8.15875 8.67797L8.15835 8.39507L8.1579 8.39507L8.15875 8.67797ZM8.18244 8.67794L8.18222 8.39503L8.18204 8.39504L8.18244 8.67794ZM8.18855 8.67793L8.18838 8.39503L8.18833 8.39503L8.18855 8.67793ZM8.19013 8.67793L8.19013 8.39503L8.18996 8.39503L8.19013 8.67793ZM8.19065 8.67793L8.47355 8.67788C8.47353 8.52166 8.34687 8.39503 8.19065 8.39503V8.67793ZM8.1907 8.96083L8.4736 8.96085L8.4736 8.96078L8.1907 8.96083ZM8.19068 9.24373V9.52664C8.34692 9.52664 8.47358 9.39999 8.47358 9.24375L8.19068 9.24373ZM8.19025 9.24373L8.19025 8.96083L8.19007 8.96083L8.19025 9.24373ZM8.18881 9.24374L8.18899 9.52664L8.18899 9.52664L8.18881 9.24374ZM8.18296 9.24374L8.18277 8.96084L8.18255 8.96084L8.18296 9.24374ZM8.1598 9.24377L8.1594 8.96087L8.15895 8.96087L8.1598 9.24377ZM8.07071 9.24404L8.06986 8.96114L8.06959 8.96114L8.07071 9.24404ZM7.74554 9.24618L7.74299 8.96329L7.74299 8.96329L7.74554 9.24618ZM6.70061 9.26334L6.70755 9.54615L6.70755 9.54615L6.70061 9.26334ZM4.60392 9.3966L4.65498 9.67485L4.65498 9.67485L4.60392 9.3966ZM3.02894 10.1992L3.20118 10.4236L3.20118 10.4236L3.02894 10.1992ZM1.64733 11.842L1.39123 11.7218C1.34597 11.8182 1.35873 11.9319 1.42422 12.0159L1.64733 11.842ZM1.90491 12.144L2.11392 11.9533L2.11392 11.9533L1.90491 12.144ZM2.61847 12.8322L2.80123 12.6162L2.80123 12.6162L2.61847 12.8322ZM3.51769 13.4561L3.38594 13.7064L3.38594 13.7064L3.51769 13.4561ZM4.39136 13.718L4.38838 14.0009L4.38862 14.0009L4.39136 13.718ZM4.39215 13.718L4.3894 14.0009L4.391 14.0009L4.39215 13.718ZM3.23099 36.8172L3.40104 36.5911L3.40104 36.5911L3.23099 36.8172ZM1.5658 33.846L1.2829 33.8439V33.846H1.5658ZM6.09804 38.1309L6.03464 38.4066C6.05471 38.4112 6.07523 38.4136 6.09582 38.4138L6.09804 38.1309ZM11.575 38.2391L11.5683 38.522H11.575V38.2391ZM11.5751 38.2391L11.5807 37.9562H11.5751V38.2391ZM11.5757 38.2391L11.5823 37.9563L11.5813 37.9563L11.5757 38.2391ZM18.7982 38.3892L18.7938 38.6721L18.7938 38.6721L18.7982 38.3892ZM32.1566 38.1714L32.184 38.4529L32.184 38.4529L32.1566 38.1714ZM37.2989 33.8818L37.0182 33.9175L37.0182 33.9176L37.2989 33.8818ZM37.2966 33.8433L37.0137 33.8406L37.0137 33.8406L37.2966 33.8433ZM37.2968 18.1456L37.5795 18.1353L37.5795 18.1353L37.2968 18.1456ZM35.7807 15.4344L35.6128 15.6621L35.6128 15.6621L35.7807 15.4344ZM33.3455 14.4018L33.3927 14.1229C33.3774 14.1203 33.362 14.119 33.3466 14.1189L33.3455 14.4018ZM4.38821 14.2838L4.38623 14.5667L4.38706 14.5667L4.38821 14.2838ZM4.38658 14.2838L4.3838 14.5666L4.3846 14.5667L4.38658 14.2838ZM3.2542 13.9568L3.38594 13.7064L3.38594 13.7064L3.2542 13.9568ZM2.25295 13.2641L2.43571 13.0481L2.43571 13.0481L2.25295 13.2641ZM1.60523 12.6522L1.81007 12.4571C1.73035 12.3734 1.60774 12.3466 1.5004 12.3894C1.39305 12.4323 1.32255 12.5361 1.32233 12.6517L1.60523 12.6522ZM1.58025 26.0785L1.86316 26.079L1.58025 26.0785ZM1.56994 31.6201L1.28704 31.6196L1.28704 31.6196L1.56994 31.6201ZM1.5669 33.2544L1.84981 33.2549L1.84981 33.2549L1.5669 33.2544ZM1.56609 33.6941L1.28319 33.6935L1.28319 33.6935L1.56609 33.6941ZM1.56587 33.8079L1.84878 33.8084L1.84878 33.8084L1.56587 33.8079ZM1.56582 33.8368L1.28292 33.8363L1.28292 33.8363L1.56582 33.8368ZM1.56581 33.8441L1.84871 33.8446L1.84871 33.8446L1.56581 33.8441ZM1.5658 33.8459L1.8487 33.848L1.84871 33.8465L1.5658 33.8459ZM18.8969 4.43502H18.614C18.614 4.58118 18.7253 4.70327 18.8709 4.71672L18.8969 4.43502ZM19.8086 4.63756L19.7176 4.90543L19.7176 4.90543L19.8086 4.63756ZM21.195 5.68074L21.446 5.55042L21.446 5.55041L21.195 5.68074ZM21.0742 6.06216L20.9439 5.81107L20.9439 5.81107L21.0742 6.06216ZM20.6928 5.9414L20.4417 6.07172L20.4417 6.07173L20.6928 5.9414ZM19.6266 5.17331L19.5357 5.44118L19.5357 5.44118L19.6266 5.17331ZM18.614 4.98757L18.614 5.27047L18.614 5.27047L18.614 4.98757ZM17.3846 5.37475L17.5448 5.60797L17.545 5.60781L17.3846 5.37475ZM17.3197 5.41935L17.4797 5.65265L17.4798 5.65257L17.3197 5.41935ZM16.9637 5.69026L17.1642 5.88991L17.1642 5.88991L16.9637 5.69026ZM16.7582 6.05416L17.0278 6.13976L17.0278 6.13976L16.7582 6.05416ZM16.7068 6.77155L16.9793 6.69583L16.9793 6.69583L16.7068 6.77155ZM17.1895 7.39593L17.3592 7.16953L17.3592 7.16953L17.1895 7.39593ZM17.6585 7.58316L17.7147 7.30589L17.7147 7.30589L17.6585 7.58316ZM18.326 7.65669L18.3074 7.93898L18.3077 7.939L18.326 7.65669ZM18.4045 7.66177L18.3862 7.94408L18.3864 7.94409L18.4045 7.66177ZM19.8501 7.96298L19.9825 7.713L19.9825 7.713L19.8501 7.96298ZM20.7788 8.63659L20.5504 8.80359L20.5504 8.80359L20.7788 8.63659ZM21.0221 9.76135L20.7395 9.7486L20.7395 9.7486L21.0221 9.76135ZM20.5395 10.9493L20.738 11.1508L20.738 11.1508L20.5395 10.9493ZM19.5493 11.4073L19.5132 11.1267L19.5132 11.1267L19.5493 11.4073ZM19.3918 11.428L19.429 11.7085L19.429 11.7085L19.3918 11.428ZM18.8969 11.487L18.8709 11.2053C18.7254 11.2187 18.614 11.3408 18.614 11.487H18.8969ZM18.3311 11.5057H18.614C18.614 11.3536 18.4937 11.2287 18.3416 11.223L18.3311 11.5057ZM17.6046 11.401L17.6739 11.1267L17.6739 11.1267L17.6046 11.401ZM15.6383 10.3461L15.8345 10.1424L15.8345 10.1424L15.6383 10.3461ZM16.0308 9.93861L16.2271 9.73487L16.2271 9.73487L16.0308 9.93861ZM17.7432 10.8525L17.8125 10.5782L17.8125 10.5782L17.7432 10.8525ZM18.6032 10.9398L18.5923 10.6571L18.5923 10.6571L18.6032 10.9398ZM19.3086 10.8682L19.3457 11.1487L19.3457 11.1487L19.3086 10.8682ZM19.4772 10.8461L19.4412 10.5655L19.4412 10.5655L19.4772 10.8461ZM20.1424 10.5462L19.9439 10.3447L19.9439 10.3447L20.1424 10.5462ZM20.4569 9.73584L20.7395 9.7486L20.7395 9.7486L20.4569 9.73584ZM20.3221 8.9706L20.5504 8.80359L20.5504 8.80359L20.3221 8.9706ZM19.5852 8.46295L19.7176 8.21297L19.7176 8.21297L19.5852 8.46295ZM18.3181 8.22319L18.2995 8.50548L18.2995 8.50548L18.3181 8.22319ZM18.2889 8.22127L18.2703 8.50356L18.2703 8.50356L18.2889 8.22127ZM17.5462 8.1377L17.49 8.41497L17.49 8.41497L17.5462 8.1377ZM16.8503 7.84873L16.6806 8.07514L16.6806 8.07514L16.8503 7.84873ZM16.1616 6.92299L16.4342 6.84727L16.4342 6.84727L16.1616 6.92299ZM16.2189 5.88297L16.4885 5.96857L16.4885 5.96857L16.2189 5.88297ZM16.5629 5.29096L16.7633 5.49061L16.7633 5.49061L16.5629 5.29096ZM16.998 4.95378L17.1576 5.18736L17.1579 5.18718L16.998 4.95378ZM17.0639 4.90863L17.2238 5.14204L17.2243 5.14169L17.0639 4.90863ZM18.3311 4.43584L18.3595 4.71731C18.504 4.70273 18.614 4.58108 18.614 4.43584H18.3311ZM28.8881 1.51302L28.8626 1.23127C28.7878 1.23804 28.7188 1.27423 28.6708 1.33188C28.6227 1.38952 28.5995 1.46389 28.6063 1.53863L28.8881 1.51302ZM28.888 1.51303L29.1698 1.48735C29.1629 1.41263 29.1267 1.34368 29.0691 1.29566C29.0114 1.24764 28.9371 1.22448 28.8623 1.23129L28.888 1.51303ZM28.9394 2.07649L28.965 2.35823C29.1206 2.34405 29.2353 2.20642 29.2211 2.05082L28.9394 2.07649ZM28.9394 2.07649L28.6576 2.10217C28.6718 2.25771 28.8094 2.37234 28.9649 2.35824L28.9394 2.07649ZM28.9395 2.07649L28.965 2.35823L28.9652 2.35822L28.9395 2.07649ZM28.9398 2.07645L28.9143 1.79471L28.9141 1.79472L28.9398 2.07645ZM28.9413 2.07632L28.916 1.79455L28.9158 1.79457L28.9413 2.07632ZM28.9476 2.07575L28.9226 1.79395L28.9223 1.79399L28.9476 2.07575ZM28.9725 2.07355L28.9483 1.79168L28.9475 1.79175L28.9725 2.07355ZM29.0679 2.06537L29.0442 1.78346L29.0437 1.7835L29.0679 2.06537ZM29.4117 2.03813L29.3906 1.75602L29.3906 1.75602L29.4117 2.03813ZM30.4734 1.97408L30.4857 2.25671L30.4857 2.25671L30.4734 1.97408ZM31.574 1.96121L31.5853 1.67853L31.5853 1.67853L31.574 1.96121ZM31.951 1.99451L31.9033 2.27335L31.9033 2.27336L31.951 1.99451ZM31.9995 2.00397L32.2812 1.97794C32.2699 1.85574 32.1811 1.75476 32.0614 1.72792L31.9995 2.00397ZM32.0016 2.03334L32.2841 2.01761L32.2841 2.01758L32.0016 2.03334ZM31.9856 2.40564L31.7041 2.37757L31.7041 2.37757L31.9856 2.40564ZM31.8076 3.51598L32.0852 3.57078L32.0852 3.57077L31.8076 3.51598ZM31.5741 4.59177L31.8496 4.65619L31.8496 4.65619L31.5741 4.59177ZM31.4908 4.94049L31.7654 5.00823L31.7656 5.00771L31.4908 4.94049ZM31.4669 5.03726L31.7414 5.10585L31.7416 5.10501L31.4669 5.03726ZM31.4606 5.06248L31.735 5.13151L31.7351 5.13107L31.4606 5.06248ZM31.459 5.06882L31.1847 4.99979L31.1846 4.99983L31.459 5.06882ZM31.4586 5.07037L31.7328 5.14009L31.733 5.13936L31.4586 5.07037ZM31.4585 5.07073L31.1844 5.001L31.1842 5.00171L31.4585 5.07073ZM31.4585 5.0708L31.7328 5.14016L31.7329 5.13982L31.4585 5.0708ZM31.6634 5.41443L31.5941 5.6887L31.5941 5.6887L31.6634 5.41443ZM32.007 5.20952L32.2813 5.27887C32.3196 5.12739 32.2279 4.97355 32.0764 4.93525L32.007 5.20952ZM31.7328 5.14016L31.8021 4.86588C31.6506 4.82761 31.4968 4.91938 31.4585 5.07084C31.4202 5.22231 31.512 5.37613 31.6634 5.41443L31.7328 5.14016ZM32.0071 5.20945L31.9378 5.48374C32.089 5.52194 32.2426 5.43055 32.2812 5.27944L32.0071 5.20945ZM32.0071 5.20932L32.2812 5.2793L32.2815 5.27832L32.0071 5.20932ZM32.0072 5.20884L31.7329 5.13971L31.7329 5.13984L32.0072 5.20884ZM32.0077 5.20705L32.282 5.27618L32.282 5.27605L32.0077 5.20705ZM32.0094 5.20022L32.2837 5.26922L32.2838 5.26881L32.0094 5.20022ZM32.0159 5.17398L32.2904 5.24256L32.2906 5.24173L32.0159 5.17398ZM32.0404 5.07494L32.315 5.1427L32.3152 5.14217L32.0404 5.07494ZM32.1251 4.7206L31.8496 4.65619L31.8496 4.65619L32.1251 4.7206ZM32.3627 3.62557L32.6402 3.68036L32.6402 3.68036L32.3627 3.62557ZM32.5486 2.46177L32.2671 2.43371L32.2671 2.43371L32.5486 2.46177ZM32.5666 2.00187L32.849 1.98614L32.849 1.98614L32.5666 2.00187ZM32.538 1.80489L32.2647 1.87772L32.2647 1.87774L32.538 1.80489ZM32.4193 1.59102L32.6156 1.38728L32.6156 1.38727L32.4193 1.59102ZM32.2314 1.48205L32.1388 1.74936L32.1388 1.74936L32.2314 1.48205ZM32.0465 1.43681L32.0942 1.15797L32.0942 1.15797L32.0465 1.43681ZM31.5966 1.39586L31.5853 1.67853L31.5853 1.67853L31.5966 1.39586ZM30.4488 1.40881L30.4611 1.69145L30.4611 1.69145L30.4488 1.40881ZM29.3695 1.4739L29.3484 1.19179L29.3484 1.19179L29.3695 1.4739ZM29.0205 1.50155L28.9968 1.21964L28.9963 1.21969L29.0205 1.50155ZM28.923 1.50992L28.8988 1.22805L28.898 1.22812L28.923 1.50992ZM28.8972 1.5122L28.8722 1.23041L28.8718 1.23044L28.8972 1.5122ZM28.8904 1.51281L28.8651 1.23104L28.8649 1.23106L28.8904 1.51281ZM28.8887 1.51297L28.8632 1.23122L28.8631 1.23123L28.8887 1.51297ZM28.8882 1.51301L28.9137 1.79476L28.9138 1.79475L28.8882 1.51301ZM30.5284 3.47384L30.3028 3.64457L30.3028 3.64457L30.5284 3.47384ZM30.4735 3.87014L30.6443 4.09572L30.6443 4.09572L30.4735 3.87014ZM30.1321 3.419L30.3028 3.64457L30.3028 3.64457L30.1321 3.419ZM27.2721 5.58367L27.1014 5.3581C26.9768 5.45239 26.9523 5.62983 27.0466 5.75441L27.2721 5.58367ZM27.6136 6.03482L27.388 6.20555C27.4333 6.26538 27.5005 6.30476 27.5748 6.31505C27.6491 6.32533 27.7245 6.30567 27.7843 6.26039L27.6136 6.03482ZM31.9907 1.94839L31.7231 2.04025C31.773 2.18564 31.9299 2.26457 32.0764 2.21799C32.2229 2.17141 32.3054 2.01637 32.2622 1.86885L31.9907 1.94839ZM31.9897 1.94543L31.7429 1.80715C31.7035 1.87741 31.696 1.96112 31.7221 2.03729L31.9897 1.94543ZM18.3751 1.2829C13.9314 1.2829 10.3292 4.81547 10.3292 9.17299H10.895C10.895 5.13822 14.2335 1.8487 18.3751 1.8487V1.2829ZM26.421 9.15957C26.4136 4.80821 22.8143 1.2829 18.3751 1.2829V1.8487C22.5124 1.8487 25.8484 5.13147 25.8552 9.16054L26.421 9.15957ZM24.2329 14.0282C24.8631 13.5772 26.1576 12.001 26.4198 9.1863L25.8565 9.13381C25.6075 11.8056 24.3845 13.2239 23.9036 13.5681L24.2329 14.0282ZM12.4767 14.0338L24.0671 14.0811L24.0694 13.5153L12.479 13.468L12.4767 14.0338ZM11.0082 12.1828C11.4116 12.9682 11.9115 13.5893 12.2791 13.9523L12.6766 13.5496C12.3493 13.2264 11.886 12.6534 11.5115 11.9243L11.0082 12.1828ZM10.3292 9.17299C10.2475 10.2878 10.5708 11.3313 11.0082 12.1828L11.5115 11.9243C11.1055 11.134 10.8216 10.1953 10.8934 9.21434L10.3292 9.17299ZM10.3299 9.16267L10.3292 9.17299L10.8934 9.21433L10.8942 9.20401L10.3299 9.16267ZM10.3292 9.17299V9.18334H10.895V9.17299H10.3292ZM10.5049 12.4413C10.8093 13.034 11.1654 13.5412 11.4916 13.9297L11.925 13.5659C11.623 13.2062 11.2913 12.734 11.0082 12.1828L10.5049 12.4413ZM9.76407 9.14261C9.6755 10.387 10.0374 11.5313 10.5049 12.4413L11.0082 12.1828C10.5721 11.3338 10.2494 10.2939 10.3284 9.18278L9.76407 9.14261ZM18.3751 0.717098C13.6331 0.717098 9.76922 4.48676 9.76335 9.16234L10.3292 9.16305C10.3346 4.81011 13.9348 1.2829 18.3751 1.2829V0.717098ZM26.9869 9.17299C26.9869 4.49249 23.1207 0.717098 18.3751 0.717098V1.2829C22.8188 1.2829 26.421 4.81547 26.421 9.17299H26.9869ZM26.9869 9.18596V9.17299H26.421V9.18596H26.9869ZM26.9845 9.22475L26.9857 9.21184L26.4222 9.16008L26.421 9.173L26.9845 9.22475ZM25.1054 13.9918C25.857 13.1646 26.7676 11.5854 26.9845 9.22476L26.421 9.17299C26.2154 11.4116 25.3554 12.8753 24.6866 13.6113L25.1054 13.9918ZM33.3717 13.5532L24.8972 13.5187L24.8949 14.0845L33.3694 14.119L33.3717 13.5532ZM33.4608 13.5606C33.4314 13.5558 33.4016 13.5533 33.3717 13.5532L33.3694 14.119L33.3694 14.119L33.4608 13.5606ZM35.9609 14.5292C35.0863 13.9697 34.1302 13.6703 33.4608 13.5606L33.3694 14.119C33.9739 14.218 34.8551 14.4934 35.656 15.0058L35.9609 14.5292ZM35.6107 14.5218C35.5917 14.5649 35.5726 14.6057 35.5543 14.6432L36.0626 14.8918C36.084 14.848 36.1063 14.8002 36.1287 14.7493L35.6107 14.5218ZM35.7877 13.8436C35.7877 14.0414 35.7123 14.2904 35.6107 14.5218L36.1287 14.7493C36.2411 14.4934 36.3535 14.1587 36.3535 13.8436H35.7877ZM35.7889 13.5951C35.7883 13.6817 35.7877 13.7653 35.7877 13.8436H36.3535C36.3535 13.7677 36.3541 13.6861 36.3547 13.599L35.7889 13.5951ZM35.7781 12.6838C35.793 13.0021 35.7908 13.3164 35.7889 13.595L36.3547 13.599C36.3566 13.3221 36.359 12.9932 36.3433 12.6575L35.7781 12.6838ZM35.6179 11.6364C35.7093 11.886 35.7582 12.2567 35.7781 12.6838L36.3433 12.6575C36.3229 12.2195 36.2718 11.7765 36.1491 11.4417L35.6179 11.6364ZM34.8043 10.415C35.2544 10.8529 35.5191 11.3668 35.6179 11.6364L36.1491 11.4417C36.0265 11.107 35.7199 10.5164 35.1988 10.0095L34.8043 10.415ZM32.9609 9.64503C33.7627 9.64503 34.3635 9.98622 34.8043 10.415L35.1988 10.0095C34.6776 9.50244 33.9418 9.07922 32.9609 9.07923L32.9609 9.64503ZM30.9858 9.65157C31.5951 9.64844 32.2581 9.64503 32.9609 9.64503L32.9609 9.07923C32.2565 9.07923 31.5921 9.08264 30.9829 9.08577L30.9858 9.65157ZM30.9842 9.65157H30.9844V9.08577H30.9842V9.65157ZM30.984 9.65157H30.9842V9.08577H30.984V9.65157ZM30.9838 9.65157H30.984V9.08577H30.9838V9.65157ZM28.3276 9.64484C28.9896 9.66185 29.9051 9.65712 30.9852 9.65157L30.9823 9.08577C29.8983 9.09134 28.9933 9.09596 28.3421 9.07923L28.3276 9.64484ZM28.0666 8.78915L28.052 9.35477L28.6176 9.3693L28.6322 8.80368L28.0666 8.78915ZM30.9651 8.52003C29.8893 8.52557 28.9996 8.53013 28.3566 8.51361L28.3421 9.07923C28.9959 9.09602 29.896 9.09135 30.968 9.08582L30.9651 8.52003ZM32.9609 8.51342C32.2456 8.51342 31.576 8.51688 30.9651 8.52003L30.968 9.08582C31.5791 9.08267 32.2473 9.07923 32.9609 9.07923L32.9609 8.51342ZM35.5933 9.6039C34.992 9.01892 34.1213 8.51342 32.9609 8.51342L32.9609 9.07923C33.9418 9.07922 34.6776 9.50245 35.1988 10.0095L35.5933 9.6039ZM36.6804 11.2471C36.5339 10.8473 36.1855 10.18 35.5933 9.6039L35.1988 10.0095C35.7199 10.5164 36.0265 11.107 36.1491 11.4417L36.6804 11.2471ZM36.9085 12.6311C36.8875 12.1819 36.8342 11.6668 36.6804 11.2471L36.1491 11.4417C36.2718 11.7765 36.3229 12.2195 36.3433 12.6575L36.9085 12.6311ZM36.9204 13.6133C36.9224 13.3345 36.9249 12.9836 36.9085 12.6311L36.3433 12.6575C36.3589 12.9926 36.3566 13.3288 36.3547 13.6093L36.9204 13.6133ZM36.9204 13.6154L36.9204 13.6144L36.3547 13.6082L36.3547 13.6092L36.9204 13.6154ZM36.9193 13.8436C36.9193 13.7745 36.9198 13.6979 36.9204 13.6143L36.3546 13.6103C36.3541 13.6935 36.3535 13.7722 36.3535 13.8436H36.9193ZM36.6467 14.9768C36.77 14.6961 36.9193 14.2757 36.9193 13.8436H36.3535C36.3535 14.1587 36.2411 14.4934 36.1287 14.7493L36.6467 14.9768ZM36.5257 15.2301C36.563 15.1578 36.6048 15.0722 36.6467 14.9768L36.1287 14.7493C36.0923 14.8322 36.0558 14.9069 36.0231 14.9702L36.5257 15.2301ZM38.1449 18.1146C38.0912 16.649 37.3464 15.5929 36.4507 14.8789L36.0981 15.3213C36.8984 15.9594 37.5332 16.8733 37.5795 18.1353L38.1449 18.1146ZM38.1454 33.8328C38.1862 29.5936 38.2435 20.8047 38.1449 18.1146L37.5795 18.1353C37.6774 20.8089 37.6205 29.5808 37.5797 33.8274L38.1454 33.8328ZM32.2388 39.0161C36.4913 38.6023 38.3679 35.6977 38.1435 33.7969L37.5816 33.8633C37.7586 35.3627 36.2151 38.0607 32.184 38.4529L32.2388 39.0161ZM18.7849 39.2378C23.8833 39.3174 29.1308 39.3185 32.2388 39.0161L32.184 38.4529C29.1133 38.7517 23.8984 38.7517 18.7938 38.6721L18.7849 39.2378ZM11.5481 39.0874C13.7468 39.1393 16.2492 39.1983 18.7849 39.2378L18.7938 38.6721C16.2606 38.6326 13.7604 38.5736 11.5614 38.5218L11.5481 39.0874ZM11.5509 39.0875L11.5512 39.0875L11.5582 38.5217L11.5579 38.5217L11.5509 39.0875ZM6.06098 38.9793C7.38548 38.9893 9.30791 39.0346 11.5478 39.0874L11.5611 38.5218C9.32336 38.469 7.39539 38.4235 6.06522 38.4136L6.06098 38.9793ZM5.94115 38.9656C5.98047 38.9744 6.02065 38.979 6.06102 38.9793L6.06519 38.4136L6.06521 38.4136L5.94115 38.9656ZM2.72085 37.4955C3.79113 38.3005 5.06598 38.7689 5.94114 38.9656L6.06522 38.4136C5.24773 38.2298 4.05215 37.7888 3.06094 37.0433L2.72085 37.4955ZM0.717098 33.846C0.717098 35.4879 1.64608 36.6871 2.72085 37.4955L3.06094 37.0433C2.06959 36.2977 1.2829 35.2477 1.2829 33.846H0.717098ZM0.717098 33.8455V33.846H1.2829V33.8455H0.717098ZM1.28343 33.5631L1.00053 33.5626L0.999474 34.1284L1.28238 34.1289L1.28343 33.5631ZM0.717098 33.8453C0.717098 33.8453 0.717103 33.8469 0.717115 33.8484C0.717136 33.85 0.71725 33.8546 0.717368 33.8577C0.717716 33.8657 0.718604 33.8785 0.721348 33.8942C0.727364 33.9285 0.74109 33.9691 0.768854 34.0085C0.819964 34.0809 0.887872 34.1058 0.906438 34.1123C0.930662 34.1208 0.950541 34.124 0.956837 34.1249C0.965459 34.1263 0.972334 34.1269 0.975715 34.1272C0.98254 34.1278 0.987915 34.128 0.989414 34.1281C0.991656 34.1281 0.993468 34.1282 0.99442 34.1282C0.997526 34.1283 1.00081 34.1283 1.00268 34.1283C1.00769 34.1283 1.01704 34.1284 1.03463 34.1284C1.07012 34.1285 1.14095 34.1287 1.28238 34.1289L1.28343 33.5631C1.14195 33.5629 1.07133 33.5627 1.0361 33.5626C1.01832 33.5626 1.00999 33.5625 1.00616 33.5625C1.00361 33.5625 1.00468 33.5625 1.00669 33.5625C1.00736 33.5626 1.00897 33.5626 1.01105 33.5627C1.0124 33.5627 1.01767 33.5629 1.02442 33.5635C1.02777 33.5638 1.03462 33.5644 1.04322 33.5658C1.0495 33.5667 1.06936 33.5699 1.09358 33.5784C1.11214 33.5849 1.18004 33.6098 1.23115 33.6822C1.28882 33.764 1.2829 33.8508 1.2829 33.8453H0.717098ZM0.717098 33.8449V33.8453H1.2829V33.8449H0.717098ZM0.717104 33.8423L0.717099 33.8441L1.2829 33.8457L1.28291 33.8438L0.717104 33.8423ZM0.717117 33.8352L0.717104 33.8425L1.28291 33.8436L1.28292 33.8363L0.717117 33.8352ZM0.717171 33.8063L0.717117 33.8352L1.28292 33.8363L1.28297 33.8073L0.717171 33.8063ZM0.717383 33.6925L0.717171 33.8063L1.28297 33.8073L1.28319 33.6935L0.717383 33.6925ZM0.718201 33.2528L0.717383 33.6925L1.28319 33.6935L1.284 33.2539L0.718201 33.2528ZM0.721241 31.6185L0.718201 33.2528L1.284 33.2539L1.28704 31.6196L0.721241 31.6185ZM0.731551 26.0769L0.721241 31.6185L1.28704 31.6196L1.29735 26.078L0.731551 26.0769ZM0.757974 11.8736L0.731551 26.0769L1.29735 26.078L1.32378 11.8746L0.757974 11.8736ZM0.800943 11.6583C0.772709 11.7266 0.758111 11.7997 0.757974 11.8736L1.32378 11.8746L1.32378 11.8746L0.800943 11.6583ZM2.51219 9.52593C1.84064 10.0414 1.17052 10.7649 0.800944 11.6583L1.32378 11.8746C1.64411 11.1003 2.23678 10.4506 2.85669 9.97477L2.51219 9.52593ZM4.45075 8.56183C3.90473 8.66202 3.17579 9.01659 2.51219 9.52593L2.85669 9.97477C3.47658 9.49897 4.12369 9.19709 4.55286 9.11834L4.45075 8.56183ZM6.67979 8.41489C5.89168 8.43423 4.93293 8.47335 4.45075 8.56183L4.55286 9.11834C4.98207 9.03958 5.89159 9.00021 6.69367 8.98052L6.67979 8.41489ZM7.73791 8.39751C7.46197 8.39999 7.08464 8.40495 6.67979 8.41489L6.69367 8.98052C7.09475 8.97068 7.46901 8.96576 7.74299 8.96329L7.73791 8.39751ZM8.06735 8.39534C7.98885 8.39565 7.87597 8.39627 7.73791 8.39751L7.74299 8.96329C7.87999 8.96206 7.99192 8.96145 8.06959 8.96114L8.06735 8.39534ZM8.1579 8.39507L8.06762 8.39534L8.06932 8.96114L8.15959 8.96087L8.1579 8.39507ZM8.18204 8.39504L8.15835 8.39507L8.15914 8.96087L8.18284 8.96084L8.18204 8.39504ZM8.18833 8.39503L8.18222 8.39504L8.18266 8.96084L8.18877 8.96083L8.18833 8.39503ZM8.18996 8.39503L8.18838 8.39503L8.18873 8.96083L8.1903 8.96083L8.18996 8.39503ZM8.19054 8.39503H8.19013V8.96083H8.19054V8.39503ZM8.19065 8.39503H8.19054V8.96083H8.19065V8.39503ZM8.4736 8.96078L8.47355 8.67788L7.90775 8.67798L7.9078 8.96088L8.4736 8.96078ZM8.47358 9.24375L8.4736 8.96085L7.9078 8.96082L7.90778 9.24372L8.47358 9.24375ZM8.1906 9.52664H8.19068V8.96083H8.1906V9.52664ZM8.19025 9.52664H8.1906V8.96083H8.19025V9.52664ZM8.18899 9.52664L8.19044 9.52664L8.19007 8.96083L8.18862 8.96083L8.18899 9.52664ZM8.18314 9.52664L8.18899 9.52664L8.18862 8.96083L8.18277 8.96084L8.18314 9.52664ZM8.16021 9.52667L8.18336 9.52664L8.18255 8.96084L8.1594 8.96087L8.16021 9.52667ZM8.07156 9.52694L8.16065 9.52667L8.15895 8.96087L8.06986 8.96114L8.07156 9.52694ZM7.74808 9.52907C7.88401 9.52785 7.99498 9.52724 8.07183 9.52694L8.06959 8.96114C7.99191 8.96145 7.87999 8.96206 7.74299 8.96329L7.74808 9.52907ZM6.70755 9.54615C7.10486 9.5364 7.47605 9.53152 7.74808 9.52907L7.74299 8.96329C7.46901 8.96575 7.09475 8.97068 6.69367 8.98052L6.70755 9.54615ZM4.65498 9.67485C5.03112 9.60583 5.89116 9.56619 6.70755 9.54615L6.69367 8.98052C5.89159 9.00021 4.98207 9.03958 4.55286 9.11834L4.65498 9.67485ZM3.20118 10.4236C3.77735 9.98138 4.34262 9.73217 4.65498 9.67485L4.55286 9.11834C4.12369 9.19709 3.47658 9.49897 2.85669 9.97477L3.20118 10.4236ZM1.90344 11.9622C2.18618 11.3596 2.67116 10.8304 3.20118 10.4236L2.85669 9.97477C2.27734 10.4194 1.72286 11.0151 1.39123 11.7218L1.90344 11.9622ZM2.11392 11.9533C2.00508 11.834 1.92344 11.736 1.87044 11.668L1.42422 12.0159C1.48736 12.0969 1.57862 12.2061 1.69591 12.3346L2.11392 11.9533ZM2.80123 12.6162C2.53216 12.3885 2.29423 12.151 2.11392 11.9533L1.69591 12.3346C1.88997 12.5474 2.1453 12.8024 2.43571 13.0481L2.80123 12.6162ZM3.64943 13.2057C3.36278 13.0549 3.07175 12.8452 2.80123 12.6162L2.43571 13.0481C2.72612 13.2939 3.0516 13.5305 3.38594 13.7064L3.64943 13.2057ZM4.39434 13.4351C4.19218 13.433 3.94032 13.3588 3.64943 13.2057L3.38594 13.7064C3.71997 13.8822 4.06282 13.9974 4.38838 14.0009L4.39434 13.4351ZM4.39489 13.4351L4.39411 13.4351L4.38862 14.0009L4.3894 14.0009L4.39489 13.4351ZM11.7094 13.4649L4.3933 13.4351L4.391 14.0009L11.7071 14.0307L11.7094 13.4649ZM3.40104 36.5911C2.4937 35.9087 1.8487 35.0079 1.8487 33.846H1.2829C1.2829 35.2476 2.06957 36.2977 3.06094 37.0433L3.40104 36.5911ZM6.16144 37.8552C5.40197 37.6805 4.30186 37.2686 3.40104 36.5911L3.06094 37.0433C4.04009 37.7797 5.21853 38.2189 6.03464 38.4066L6.16144 37.8552ZM11.5816 37.9563C9.35399 37.9038 7.42937 37.8584 6.10026 37.848L6.09582 38.4138C7.41938 38.4242 9.3386 38.4694 11.5683 38.5219L11.5816 37.9563ZM11.5751 37.9562H11.575V38.522H11.5751V37.9562ZM11.5813 37.9563L11.5807 37.9563L11.5695 38.522L11.5701 38.522L11.5813 37.9563ZM18.8026 38.1064C16.2827 38.0671 13.7836 38.0082 11.5823 37.9563L11.569 38.5219C13.7699 38.5738 16.2713 38.6328 18.7938 38.6721L18.8026 38.1064ZM32.1293 37.8898C29.0958 38.185 23.9134 38.1861 18.8026 38.1064L18.7938 38.6721C23.8984 38.7517 29.1133 38.7517 32.184 38.4529L32.1293 37.8898ZM37.0182 33.9176C37.1576 35.011 35.9522 37.5178 32.1293 37.8898L32.184 38.4529C36.2316 38.0591 37.7701 35.3415 37.5795 33.846L37.0182 33.9176ZM37.0137 33.8406C37.0135 33.8663 37.015 33.892 37.0182 33.9175L37.5795 33.8461L37.5795 33.846L37.0137 33.8406ZM37.0141 18.156C37.1116 20.8169 37.0547 29.5939 37.0137 33.8406L37.5795 33.846C37.6204 29.6066 37.6776 20.8128 37.5795 18.1353L37.0141 18.156ZM35.6128 15.6621C36.3849 16.2315 36.973 17.0347 37.0141 18.156L37.5795 18.1353C37.5304 16.7966 36.8187 15.8483 35.9486 15.2067L35.6128 15.6621ZM33.2982 14.6807C33.9105 14.7844 34.8377 15.0906 35.6128 15.6621L35.9486 15.2067C35.0882 14.5723 34.0735 14.2381 33.3927 14.1229L33.2982 14.6807ZM4.38706 14.5667L33.3443 14.6847L33.3466 14.1189L4.38937 14.0009L4.38706 14.5667ZM4.3846 14.5667L4.38623 14.5667L4.3902 14.0009L4.38857 14.0009L4.3846 14.5667ZM3.12246 14.2071C3.49996 14.4058 3.93432 14.5622 4.3838 14.5666L4.38937 14.0009C4.0635 13.9977 3.72029 13.8824 3.38594 13.7064L3.12246 14.2071ZM2.07019 13.48C2.3805 13.7426 2.74042 14.0061 3.12246 14.2071L3.38594 13.7064C3.0516 13.5305 2.72612 13.2939 2.43571 13.0481L2.07019 13.48ZM1.40039 12.8473C1.58827 13.0446 1.81621 13.2651 2.07019 13.48L2.43571 13.0481C2.19938 12.8481 1.98613 12.6419 1.81007 12.4571L1.40039 12.8473ZM1.86316 26.079L1.88813 12.6527L1.32233 12.6517L1.29735 26.078L1.86316 26.079ZM1.85285 31.6207L1.86316 26.079L1.29735 26.078L1.28704 31.6196L1.85285 31.6207ZM1.84981 33.2549L1.85285 31.6207L1.28704 31.6196L1.284 33.2539L1.84981 33.2549ZM1.84899 33.6946L1.84981 33.2549L1.284 33.2539L1.28319 33.6935L1.84899 33.6946ZM1.84878 33.8084L1.84899 33.6946L1.28319 33.6935L1.28297 33.8073L1.84878 33.8084ZM1.84872 33.8373L1.84878 33.8084L1.28297 33.8073L1.28292 33.8363L1.84872 33.8373ZM1.84871 33.8446L1.84872 33.8373L1.28292 33.8363L1.28291 33.8436L1.84871 33.8446ZM1.84871 33.8465L1.84871 33.8446L1.28291 33.8436L1.2829 33.8454L1.84871 33.8465ZM1.8487 33.8481L1.8487 33.848L1.28291 33.8438L1.28291 33.8439L1.8487 33.8481ZM19.1798 3.40918C19.1798 3.09669 18.9265 2.84337 18.614 2.84337V3.40918L18.614 3.40918H19.1798ZM19.1798 4.43502V3.40918H18.614V4.43502H19.1798ZM19.8996 4.36969C19.5779 4.26043 19.2516 4.18369 18.9229 4.15332L18.8709 4.71672C19.147 4.74224 19.4293 4.80752 19.7176 4.90543L19.8996 4.36969ZM21.446 5.55041C21.1533 4.98642 20.6739 4.63267 19.8996 4.36969L19.7176 4.90543C20.4043 5.13867 20.7395 5.41742 20.9439 5.81107L21.446 5.55041ZM21.2045 6.31326C21.4819 6.1693 21.59 5.82777 21.446 5.55042L20.9439 5.81107L20.9439 5.81107L21.2045 6.31326ZM20.4417 6.07173C20.5856 6.34907 20.9272 6.45721 21.2045 6.31326L20.9439 5.81107L20.9439 5.81107L20.4417 6.07173ZM19.5357 5.44118C20.1342 5.64445 20.3255 5.84797 20.4417 6.07172L20.9439 5.81107C20.7396 5.41746 20.4044 5.13869 19.7176 4.90543L19.5357 5.44118ZM18.614 5.27047C18.895 5.27046 19.2006 5.32737 19.5357 5.44118L19.7176 4.90543C19.3391 4.77686 18.9711 4.70466 18.614 4.70467L18.614 5.27047ZM17.545 5.60781C17.8911 5.36969 18.2423 5.27048 18.614 5.27047L18.614 4.70467C18.1303 4.70469 17.6667 4.83723 17.2243 5.14169L17.545 5.60781ZM17.4798 5.65257L17.5448 5.60797L17.2245 5.14153L17.1595 5.18613L17.4798 5.65257ZM17.1642 5.88991C17.2257 5.82817 17.3049 5.77256 17.4797 5.65265L17.1597 5.18605C16.9999 5.29562 16.8703 5.38325 16.7633 5.49061L17.1642 5.88991ZM17.0278 6.13976C17.074 5.99442 17.1181 5.9362 17.1642 5.88991L16.7633 5.49061C16.6452 5.60914 16.5582 5.74918 16.4885 5.96857L17.0278 6.13976ZM16.9793 6.69583C16.9431 6.56537 16.9473 6.39354 17.0278 6.13976L16.4885 5.96857C16.3888 6.28274 16.3582 6.57365 16.4342 6.84727L16.9793 6.69583ZM17.3592 7.16953C17.1047 6.97884 17.0137 6.81964 16.9793 6.69583L16.4342 6.84727C16.5102 7.12082 16.6928 7.37724 17.0199 7.62233L17.3592 7.16953ZM17.7147 7.30589C17.5399 7.27049 17.4305 7.223 17.3592 7.16953L17.0199 7.62233C17.1834 7.74484 17.3827 7.81593 17.6024 7.86043L17.7147 7.30589ZM18.3446 7.37439C18.0956 7.35802 17.8918 7.34177 17.7147 7.30589L17.6024 7.86043C17.8221 7.90494 18.0623 7.92285 18.3074 7.93898L18.3446 7.37439ZM18.4228 7.37946L18.3443 7.37438L18.3077 7.939L18.3862 7.94408L18.4228 7.37946ZM19.9825 7.713C19.472 7.44251 18.8656 7.40788 18.4226 7.37945L18.3864 7.94409C18.8536 7.97408 19.3329 8.00916 19.7176 8.21297L19.9825 7.713ZM21.0071 8.46958C20.759 8.13026 20.3692 7.91786 19.9825 7.713L19.7176 8.21297C20.1256 8.42913 20.3919 8.5868 20.5504 8.80359L21.0071 8.46958ZM21.3047 9.77411C21.3269 9.28259 21.2816 8.84491 21.0071 8.46958L20.5504 8.80359C20.7088 9.02016 20.7599 9.2958 20.7395 9.7486L21.3047 9.77411ZM20.738 11.1508C21.078 10.8158 21.2788 10.3493 21.3047 9.77411L20.7395 9.7486C20.719 10.2015 20.5657 10.5263 20.341 10.7477L20.738 11.1508ZM19.5853 11.6879C19.9842 11.6367 20.4055 11.4784 20.738 11.1508L20.341 10.7477C20.1162 10.9692 19.8199 11.0873 19.5132 11.1267L19.5853 11.6879ZM19.429 11.7085C19.4818 11.7014 19.5337 11.6946 19.5853 11.6879L19.5132 11.1267C19.4602 11.1335 19.4071 11.1406 19.3545 11.1476L19.429 11.7085ZM18.9229 11.7687C19.0967 11.7527 19.2671 11.73 19.429 11.7085L19.3545 11.1476C19.1909 11.1693 19.0316 11.1905 18.8709 11.2053L18.9229 11.7687ZM19.1798 12.4655V11.487H18.614V12.4655H19.1798ZM18.614 13.0313C18.9265 13.0313 19.1798 12.778 19.1798 12.4655H18.614L18.614 12.4655V13.0313ZM18.0482 12.4655C18.0482 12.778 18.3015 13.0313 18.614 13.0313V12.4655L18.614 12.4655H18.0482ZM18.0482 11.5057V12.4655H18.614V11.5057H18.0482ZM17.5352 11.6753C17.8154 11.7461 18.0743 11.7793 18.3206 11.7884L18.3416 11.223C18.1326 11.2152 17.9132 11.1872 17.6739 11.1267L17.5352 11.6753ZM15.442 10.5498C15.698 10.7965 16.5261 11.4202 17.5352 11.6753L17.6739 11.1267C16.7832 10.9016 16.0389 10.3392 15.8345 10.1424L15.442 10.5498ZM15.4271 9.74981C15.2103 9.97486 15.2169 10.333 15.442 10.5498L15.8345 10.1424L15.8345 10.1424L15.4271 9.74981ZM16.2271 9.73487C16.002 9.51808 15.6439 9.52476 15.4271 9.74981L15.8345 10.1424L15.8345 10.1424L16.2271 9.73487ZM17.8125 10.5782C17.0402 10.383 16.3798 9.88197 16.2271 9.73487L15.8345 10.1424C16.0389 10.3392 16.7832 10.9016 17.6739 11.1267L17.8125 10.5782ZM18.5923 10.6571C18.3439 10.6667 18.0954 10.6497 17.8125 10.5782L17.6739 11.1267C18.0173 11.2135 18.3208 11.2338 18.614 11.2225L18.5923 10.6571ZM19.2714 10.5878C19.02 10.6211 18.8093 10.6488 18.5923 10.6571L18.614 11.2225C18.8618 11.213 19.0989 11.1814 19.3457 11.1487L19.2714 10.5878ZM19.4412 10.5655C19.3828 10.573 19.3262 10.5805 19.2714 10.5878L19.3457 11.1487C19.4007 11.1414 19.4562 11.1341 19.5132 11.1267L19.4412 10.5655ZM19.9439 10.3447C19.8267 10.4602 19.6552 10.538 19.4412 10.5655L19.5132 11.1267C19.8199 11.0873 20.1162 10.9692 20.341 10.7477L19.9439 10.3447ZM20.1743 9.72309C20.1593 10.0533 20.0536 10.2366 19.9439 10.3447L20.341 10.7477C20.5657 10.5263 20.719 10.2016 20.7395 9.7486L20.1743 9.72309ZM20.0937 9.13761C20.136 9.19538 20.1929 9.30894 20.1743 9.72309L20.7395 9.7486C20.7599 9.2958 20.7088 9.02017 20.5504 8.80359L20.0937 9.13761ZM19.4527 8.71293C19.8854 8.94215 20.0255 9.04433 20.0937 9.13761L20.5504 8.80359C20.3918 8.58673 20.1253 8.42899 19.7176 8.21297L19.4527 8.71293ZM18.2995 8.50548C18.8171 8.53947 19.18 8.56845 19.4527 8.71293L19.7176 8.21297C19.3157 8.00004 18.816 7.97238 18.3366 7.94089L18.2995 8.50548ZM18.2703 8.50356L18.2995 8.50548L18.3366 7.94089L18.3074 7.93898L18.2703 8.50356ZM17.49 8.41497C17.7522 8.46808 18.0286 8.48766 18.2703 8.50356L18.3074 7.93898C18.0623 7.92285 17.8221 7.90494 17.6024 7.86043L17.49 8.41497ZM16.6806 8.07514C16.9362 8.26666 17.2254 8.36136 17.49 8.41497L17.6024 7.86043C17.3827 7.81593 17.1834 7.74484 17.0199 7.62233L16.6806 8.07514ZM15.889 6.9987C16.0067 7.42241 16.2813 7.77596 16.6806 8.07514L17.0199 7.62233C16.6928 7.37727 16.5102 7.12086 16.4342 6.84727L15.889 6.9987ZM15.9493 5.79737C15.8304 6.17165 15.7732 6.58175 15.889 6.9987L16.4342 6.84727C16.3582 6.57364 16.3888 6.28271 16.4885 5.96857L15.9493 5.79737ZM16.3624 5.09131C16.1723 5.28217 16.0424 5.50409 15.9492 5.79737L16.4885 5.96857C16.5582 5.7492 16.6452 5.60915 16.7633 5.49061L16.3624 5.09131ZM16.8384 4.72019C16.6849 4.82505 16.509 4.94415 16.3624 5.09131L16.7633 5.49061C16.8654 5.38808 16.9947 5.29869 17.1576 5.18736L16.8384 4.72019ZM16.9041 4.67522L16.8381 4.72037L17.1579 5.18718L17.2238 5.14204L16.9041 4.67522ZM18.3027 4.15437C17.8161 4.20347 17.3467 4.37064 16.9035 4.67557L17.2243 5.14169C17.5899 4.89013 17.9687 4.75675 18.3595 4.71731L18.3027 4.15437ZM18.0482 3.40918V4.43584H18.614V3.40918H18.0482ZM18.614 2.84337C18.3015 2.84337 18.0482 3.09669 18.0482 3.40918H18.614L18.614 3.40918V2.84337ZM29.1954 1.76915L29.1698 1.48741L28.6063 1.53863L28.632 1.82037L29.1954 1.76915ZM28.6063 1.5387L28.632 1.82043L29.1954 1.76909L29.1698 1.48735L28.6063 1.5387ZM28.9137 1.79476L28.9137 1.79476L28.8623 1.23129C28.5512 1.25965 28.3219 1.53491 28.3502 1.84611L28.9137 1.79476ZM28.9137 1.79476L28.9137 1.79476L28.3502 1.84611C28.3786 2.1573 28.6538 2.38659 28.965 2.35823L28.9137 1.79476ZM28.632 1.82043L28.6576 2.10217L29.2211 2.05082L29.1954 1.76909L28.632 1.82043ZM29.2211 2.05081L29.1954 1.76908L28.632 1.82044L28.6576 2.10217L29.2211 2.05081ZM28.9139 1.79474L28.9138 1.79475L28.9649 2.35824L28.965 2.35823L28.9139 1.79474ZM28.9141 1.79472L28.9137 1.79476L28.9652 2.35822L28.9655 2.35819L28.9141 1.79472ZM28.9158 1.79457L28.9143 1.79471L28.9653 2.3582L28.9669 2.35806L28.9158 1.79457ZM28.9223 1.79399L28.916 1.79455L28.9667 2.35808L28.9729 2.35752L28.9223 1.79399ZM28.9475 1.79175L28.9226 1.79396L28.9726 2.35755L28.9974 2.35535L28.9475 1.79175ZM29.0437 1.7835L28.9483 1.79168L28.9966 2.35542L29.092 2.34723L29.0437 1.7835ZM29.3906 1.75602C29.2466 1.76678 29.1274 1.77647 29.0442 1.78346L29.0915 2.34728C29.1733 2.3404 29.2908 2.33086 29.4327 2.32025L29.3906 1.75602ZM30.4611 1.69145C30.0653 1.70867 29.6785 1.73449 29.3906 1.75602L29.4327 2.32025C29.7172 2.29898 30.0978 2.27359 30.4857 2.25671L30.4611 1.69145ZM31.5853 1.67853C31.2616 1.66562 30.8569 1.67423 30.4611 1.69145L30.4857 2.25671C30.8764 2.23972 31.2627 2.23191 31.5628 2.24389L31.5853 1.67853ZM31.9987 1.71566C31.8887 1.69682 31.7471 1.68499 31.5853 1.67853L31.5628 2.24389C31.7144 2.24994 31.8282 2.2605 31.9033 2.27335L31.9987 1.71566ZM32.0614 1.72792C32.0424 1.72367 32.0216 1.71957 31.9987 1.71566L31.9033 2.27336C31.9177 2.27582 31.9291 2.27811 31.9376 2.28002L32.0614 1.72792ZM32.2841 2.01758C32.2833 2.00349 32.2823 1.99029 32.2812 1.97794L31.7178 2.03C31.7183 2.03512 31.7187 2.04146 31.7192 2.0491L32.2841 2.01758ZM32.2671 2.43371C32.2834 2.27048 32.2902 2.12794 32.2841 2.01761L31.7192 2.04907C31.7229 2.11653 31.7192 2.22559 31.7041 2.37757L32.2671 2.43371ZM32.0852 3.57077C32.1643 3.16983 32.2345 2.76026 32.2671 2.43371L31.7041 2.37757C31.6742 2.67695 31.6082 3.06556 31.5301 3.46119L32.0852 3.57077ZM31.8496 4.65619C31.9179 4.36408 32.006 3.97173 32.0852 3.57078L31.5301 3.46119C31.4526 3.85349 31.3661 4.23898 31.2987 4.52735L31.8496 4.65619ZM31.7656 5.00771C31.7862 4.92324 31.8154 4.80224 31.8496 4.65619L31.2987 4.52735C31.265 4.67126 31.2363 4.79036 31.216 4.87326L31.7656 5.00771ZM31.7416 5.10501L31.7654 5.00823L31.2161 4.87274L31.1922 4.96951L31.7416 5.10501ZM31.7351 5.13107L31.7414 5.10585L31.1924 4.96867L31.1861 4.99389L31.7351 5.13107ZM31.7334 5.13786L31.735 5.13151L31.1863 4.99344L31.1847 4.99979L31.7334 5.13786ZM31.733 5.13936L31.7334 5.13781L31.1846 4.99983L31.1843 5.00138L31.733 5.13936ZM31.7327 5.14045L31.7328 5.14009L31.1844 5.00064L31.1844 5.001L31.7327 5.14045ZM31.7329 5.13982L31.7329 5.13975L31.1842 5.00171L31.1842 5.00178L31.7329 5.13982ZM31.1842 5.00145C31.1076 5.3044 31.2911 5.61209 31.5941 5.6887L31.7328 5.14016L31.7328 5.14016L31.1842 5.00145ZM31.5941 5.6887C31.897 5.76531 32.2047 5.58182 32.2813 5.27887L31.7328 5.14016L31.7328 5.14016L31.5941 5.6887ZM32.0764 4.93525L31.8021 4.86589L31.6634 5.41443L31.9377 5.48379L32.0764 4.93525ZM32.0763 4.93517L31.8021 4.86588L31.6635 5.41445L31.9378 5.48374L32.0763 4.93517ZM31.733 5.13933L31.733 5.13947L32.2812 5.27944L32.2812 5.2793L31.733 5.13933ZM31.7329 5.13984L31.7327 5.14032L32.2815 5.27832L32.2816 5.27784L31.7329 5.13984ZM31.7333 5.13792L31.7329 5.13971L32.2815 5.27797L32.282 5.27618L31.7333 5.13792ZM31.735 5.13122L31.7333 5.13806L32.282 5.27605L32.2837 5.26922L31.735 5.13122ZM31.7415 5.10539L31.7349 5.13163L32.2838 5.26881L32.2904 5.24256L31.7415 5.10539ZM31.7657 5.00719L31.7413 5.10623L32.2906 5.24173L32.315 5.1427L31.7657 5.00719ZM31.8496 4.65619C31.8154 4.80224 31.7862 4.92323 31.7656 5.00772L32.3152 5.14217C32.3362 5.0561 32.3659 4.93322 32.4005 4.78502L31.8496 4.65619ZM32.0852 3.57078C32.006 3.97173 31.9179 4.36408 31.8496 4.65619L32.4005 4.78502C32.4697 4.48917 32.5594 4.08997 32.6402 3.68036L32.0852 3.57078ZM32.2671 2.43371C32.2345 2.76026 32.1643 3.16983 32.0852 3.57078L32.6402 3.68036C32.7205 3.27406 32.7948 2.84355 32.8301 2.48984L32.2671 2.43371ZM32.2841 2.01761C32.2902 2.12794 32.2834 2.27047 32.2671 2.43371L32.8301 2.48984C32.8475 2.31521 32.8576 2.13926 32.849 1.98614L32.2841 2.01761ZM32.2647 1.87774C32.2747 1.91538 32.281 1.9625 32.2841 2.01761L32.849 1.98614C32.8448 1.91006 32.8351 1.82092 32.8114 1.73204L32.2647 1.87774ZM32.223 1.79476C32.241 1.81204 32.2547 1.84025 32.2647 1.87772L32.8114 1.73205C32.7907 1.65425 32.7422 1.50927 32.6156 1.38728L32.223 1.79476ZM32.1388 1.74936C32.1763 1.76237 32.205 1.77742 32.2231 1.79476L32.6156 1.38727C32.5107 1.28619 32.3915 1.23812 32.324 1.21474L32.1388 1.74936ZM31.9987 1.71566C32.0537 1.72507 32.1009 1.73624 32.1388 1.74936L32.324 1.21474C32.2464 1.18787 32.1664 1.17033 32.0942 1.15797L31.9987 1.71566ZM31.5853 1.67853C31.7471 1.68499 31.8887 1.69683 31.9987 1.71566L32.0942 1.15797C31.9492 1.13315 31.7799 1.12004 31.6079 1.11318L31.5853 1.67853ZM30.4611 1.69145C30.8569 1.67423 31.2616 1.66562 31.5853 1.67853L31.6079 1.11318C31.2606 1.09932 30.8374 1.10874 30.4365 1.12618L30.4611 1.69145ZM29.3906 1.75602C29.6785 1.73449 30.0653 1.70867 30.4611 1.69145L30.4365 1.12618C30.0329 1.14374 29.6398 1.17001 29.3484 1.19179L29.3906 1.75602ZM29.0442 1.78346C29.1274 1.77647 29.2466 1.76678 29.3906 1.75602L29.3484 1.19179C29.2024 1.2027 29.0815 1.21253 28.9968 1.21965L29.0442 1.78346ZM28.9472 1.79178L29.0446 1.78342L28.9963 1.21969L28.8988 1.22805L28.9472 1.79178ZM28.9221 1.794L28.9479 1.79171L28.898 1.22812L28.8722 1.23041L28.9221 1.794ZM28.9158 1.79457L28.9225 1.79397L28.8718 1.23044L28.8651 1.23104L28.9158 1.79457ZM28.9142 1.79472L28.9159 1.79456L28.8649 1.23106L28.8632 1.23122L28.9142 1.79472ZM28.9138 1.79475L28.9143 1.7947L28.8631 1.23123L28.8626 1.23127L28.9138 1.79475ZM28.9136 1.79477L28.9137 1.79476L28.8627 1.23126L28.8626 1.23127L28.9136 1.79477ZM30.3028 3.64457L30.3028 3.64457L30.6443 4.09572C30.8934 3.90713 30.9425 3.55226 30.754 3.3031L30.3028 3.64457ZM30.3028 3.64457L30.3028 3.64457L30.754 3.3031C30.5654 3.05394 30.2105 3.00484 29.9613 3.19343L30.3028 3.64457ZM27.4429 5.80924L30.3028 3.64457L29.9613 3.19343L27.1014 5.3581L27.4429 5.80924ZM27.8392 5.86408L27.4977 5.41294L27.0466 5.75441L27.388 6.20555L27.8392 5.86408ZM30.3028 3.64457L27.4429 5.80924L27.7843 6.26039L30.6443 4.09572L30.3028 3.64457ZM32.2583 1.85653L32.2573 1.85357L31.7221 2.03729L31.7231 2.04025L32.2583 1.85653ZM32.2365 2.0837C32.2202 2.11274 32.1906 2.15333 32.14 2.18507C32.0859 2.21902 32.0252 2.23176 31.9687 2.22754C31.8729 2.22041 31.8139 2.16767 31.8018 2.15688C31.7673 2.12628 31.7489 2.09393 31.7476 2.09173C31.7376 2.07529 31.7317 2.06139 31.7307 2.05926C31.7268 2.05042 31.7243 2.04341 31.7235 2.0412C31.7213 2.03505 31.7199 2.03033 31.7192 2.02793L32.2622 1.86885C32.2609 1.86436 32.259 1.85813 32.2564 1.85101C32.2555 1.84831 32.2528 1.84094 32.2488 1.83188C32.2478 1.82964 32.2418 1.81566 32.2319 1.79918C32.2305 1.79695 32.2121 1.76459 32.1776 1.73398C32.1655 1.72318 32.1065 1.67044 32.0107 1.66331C31.9541 1.65909 31.8935 1.67183 31.8393 1.70578C31.7888 1.73752 31.7591 1.77812 31.7429 1.80715L32.2365 2.0837Z" fill="#162C3A"/>
<g filter="url(#filter0_i_1_160)">
<path d="M28.5236 22.546H39.2963V30.2628H28.5236C28.5236 30.2628 24.2544 30.2628 24.2545 26.3316C24.2545 22.4004 28.5236 22.546 28.5236 22.546Z" fill="#2CF199"/>
<ellipse cx="28.6638" cy="26.4393" rx="2.28453" ry="2.00022" fill="white"/>
</g>
<path d="M39.4191 22.2313H28.383C28.383 22.2313 24.0094 22.0738 24.0094 26.3264C24.0094 30.5789 28.383 30.5789 28.383 30.5789H39.4191" stroke="#182B3A" stroke-width="0.848705"/>
<g filter="url(#filter1_d_1_160)">
<ellipse cx="28.6674" cy="26.2854" rx="2.3282" ry="2.16411" fill="white"/>
<path d="M30.4298 26.2854C30.4298 27.1299 29.6804 27.8837 28.6674 27.8837C27.6544 27.8837 26.905 27.1299 26.905 26.2854C26.905 25.441 27.6544 24.6871 28.6674 24.6871C29.6804 24.6871 30.4298 25.441 30.4298 26.2854Z" stroke="#182B3A" stroke-width="1.13161"/>
</g>
<ellipse cx="12.0741" cy="26.4044" rx="8.9924" ry="8.66257" fill="#162C3A"/>
<g filter="url(#filter2_i_1_160)">
<path fill-rule="evenodd" clip-rule="evenodd" d="M12.4562 35.0593C12.3295 35.0644 12.2021 35.067 12.0741 35.067C11.946 35.067 11.8187 35.0644 11.6919 35.0593V29.1303C11.6919 28.935 11.5336 28.7767 11.3383 28.7767C11.143 28.7767 10.9847 28.935 10.9847 29.1303V35.004C10.7264 34.974 10.4715 34.9334 10.2205 34.8827V27.8111C10.2205 27.6158 10.0621 27.4574 9.86684 27.4574C9.67154 27.4574 9.51321 27.6158 9.51321 27.8111V34.7106C9.25336 34.6364 8.99841 34.5512 8.74897 34.4555V30.3553C8.74897 30.16 8.59064 30.0017 8.39534 30.0017C8.20004 30.0017 8.04171 30.16 8.04171 30.3553V34.1493C5.10015 32.7253 3.08167 29.7919 3.08167 26.4044C3.08167 21.6202 7.1077 17.7418 12.0741 17.7418C17.0404 17.7418 21.0665 21.6202 21.0665 26.4044C21.0665 29.7919 19.048 32.7253 16.1064 34.1493V24.0418C16.1064 23.8465 15.9481 23.6882 15.7528 23.6882C15.5575 23.6882 15.3991 23.8465 15.3991 24.0418V34.4555C15.1497 34.5512 14.8948 34.6364 14.6349 34.7106V25.1726C14.6349 24.9773 14.4766 24.819 14.2813 24.819C14.086 24.819 13.9277 24.9773 13.9277 25.1726V34.8827C13.6766 34.9334 13.4217 34.974 13.1634 35.004V26.1149C13.1634 25.9196 13.0051 25.7613 12.8098 25.7613C12.6145 25.7613 12.4562 25.9196 12.4562 26.1149V35.0593Z" fill="url(#paint0_linear_1_160)"/>
</g>
<path d="M65.1687 26H60.3033C59.7592 21.6613 59.0721 17.8945 58.242 14.6998C58.6466 13.8767 58.9919 13.1233 59.2779 12.4397C59.3267 12.3351 59.4523 12.1956 59.6546 12.0212C59.8638 11.8468 60.0417 11.7596 60.1882 11.7596H63.5155C63.8015 13.8662 64.1851 16.2134 64.6664 18.8013C65.1547 21.3823 65.629 23.5516 66.0894 25.3094C66.0894 25.4001 65.9778 25.5396 65.7546 25.728C65.5314 25.9093 65.3361 26 65.1687 26ZM56.8086 24.148L56.84 25.3094C56.84 25.4001 56.7249 25.5396 56.4947 25.728C56.2715 25.9093 56.0797 26 55.9192 26H52.5815C53.6836 24.1306 55.3926 20.7056 57.7084 15.7252C57.7712 15.9065 57.8026 16.1611 57.8026 16.489C57.8026 16.8098 57.7538 17.2772 57.6561 17.891C57.5654 18.5049 57.4468 19.2303 57.3004 20.0674C57.1539 20.8975 57.0458 21.5706 56.976 22.0868C57.9805 22.2402 58.7094 22.4111 59.1628 22.5995C59.1628 23.018 59.0931 23.3284 58.9535 23.5307C58.2281 23.5935 57.5131 23.6876 56.8086 23.8132V24.148ZM81.2924 22.16L81.2192 23.7086C81.2192 24.0364 81.2889 24.2771 81.4284 24.4305C81.5749 24.577 81.8191 24.6503 82.1609 24.6503C82.0911 25.0827 81.976 25.4385 81.8156 25.7175C80.8251 26.0105 79.7892 26.1569 78.708 26.1569C77.6268 26.1569 76.9293 26.0419 76.6154 25.8117C76.3085 25.5745 76.155 25.2641 76.155 24.8804C76.155 24.4898 76.2003 23.9841 76.291 23.3633C76.3887 22.7425 76.4375 22.2507 76.4375 21.888C76.4375 21.2462 76.0748 20.8591 75.3493 20.7266C75.4121 20.3848 75.5307 20.1127 75.7051 19.9104C76.3747 19.7081 76.87 19.4047 77.1908 19.0001C77.5117 18.5956 77.6722 18.2119 77.6722 17.8492C77.6722 17.4795 77.6024 17.197 77.4629 17.0017C77.3234 16.7994 77.156 16.6982 76.9607 16.6982C76.7653 16.6982 76.5735 16.7296 76.3852 16.7924C76.448 16.3739 76.5665 16.06 76.7409 15.8507C77.564 15.4531 78.3627 15.2543 79.137 15.2543C79.9182 15.2543 80.5356 15.4287 80.989 15.7775C81.4424 16.1263 81.6691 16.5727 81.6691 17.1168C81.6691 17.6539 81.547 18.1073 81.3029 18.477C81.0657 18.8397 80.7483 19.1362 80.3507 19.3664C79.5695 19.8337 78.6731 20.1162 77.6617 20.2139C78.8475 20.2139 79.7474 20.3848 80.3612 20.7266C80.982 21.0684 81.2924 21.5462 81.2924 22.16ZM73.9682 25.2885C73.9682 25.3862 73.8566 25.5292 73.6334 25.7175C73.4102 25.9058 73.2148 26 73.0474 26H68.7366C69.0435 24.6886 69.3958 22.4983 69.7934 19.4291C70.198 16.3599 70.477 13.9534 70.6304 12.2095C70.6304 12.1189 70.742 11.9828 70.9653 11.8015C71.1885 11.6131 71.3803 11.519 71.5407 11.519H75.9457C75.576 13.0536 75.1924 15.2683 74.7948 18.1631C74.3972 21.0509 74.1217 23.4261 73.9682 25.2885ZM85.373 16.2483C85.4637 15.781 85.5997 15.0206 85.7811 13.9674L84.7871 13.6639C84.8778 13.1338 84.9475 12.6629 84.9964 12.2514C84.9964 12.1537 85.108 12.0142 85.3312 11.8329C85.5544 11.6445 85.7462 11.5504 85.9067 11.5504H88.7003C88.5887 12.0456 88.498 12.4467 88.4283 12.7536C88.3655 13.0536 88.2888 13.371 88.1981 13.7058C88.1074 14.0406 88.0307 14.3022 87.9679 14.4905C87.9121 14.6719 87.8354 14.8672 87.7377 15.0765C87.647 15.2857 87.5668 15.4392 87.4971 15.5368C87.4273 15.6345 87.3297 15.7391 87.2041 15.8507C87.0855 15.9554 86.9739 16.0251 86.8693 16.06C86.7716 16.0949 86.6356 16.1297 86.4612 16.1646C86.231 16.2204 85.8683 16.2483 85.373 16.2483ZM95.041 15.2439C94.6434 15.6205 94.4446 16.0181 94.4446 16.4367C94.4446 17.4132 95.1875 18.4247 96.6733 19.471C97.3429 19.9453 97.8661 20.3499 98.2427 20.6847C99.0868 21.4381 99.5088 22.2577 99.5088 23.1436C99.5088 24.0225 99.0658 24.734 98.18 25.278C97.3011 25.8152 96.0664 26.0837 94.476 26.0837C94.6574 25.6791 94.748 25.3129 94.748 24.9851C94.748 24.6572 94.6539 24.3398 94.4655 24.0329C94.2842 23.719 94.047 23.433 93.754 23.1749C93.4611 22.9169 93.1367 22.6588 92.781 22.4007C92.4252 22.1356 92.0695 21.867 91.7137 21.595C91.358 21.323 91.0336 21.0439 90.7407 20.758C90.078 20.1092 89.7467 19.4082 89.7467 18.6549C89.7467 17.8248 90.0536 17.1482 90.6674 16.625C91.7207 15.7391 93.1786 15.2787 95.041 15.2439ZM96.6628 15.2753C97.6463 15.2753 98.4904 15.4706 99.1949 15.8612C99.8994 16.2448 100.252 16.7157 100.252 17.2737C100.252 18.1387 99.4425 18.6688 97.8242 18.8641C97.8382 18.8153 97.8451 18.7386 97.8451 18.6339C97.8451 18.1038 97.6777 17.6155 97.3429 17.1691C97.0081 16.7157 96.5407 16.353 95.9408 16.0809C95.9408 15.9693 96.0176 15.8158 96.171 15.6205C96.3245 15.4252 96.4884 15.3101 96.6628 15.2753ZM92.645 26.0419C92.2962 26.0698 92.0381 26.0837 91.8707 26.0837C90.8592 26.0837 90.0187 25.9198 89.3491 25.5919C88.6794 25.2571 88.3446 24.8246 88.3446 24.2945C88.3446 23.2273 89.1503 22.5541 90.7616 22.2751C90.7058 22.5751 90.6814 22.8401 90.6883 23.0703C90.7023 23.2935 90.779 23.5167 90.9185 23.74C91.065 23.9562 91.2673 24.1515 91.5254 24.3259C91.9858 24.6328 92.5578 24.9153 93.2414 25.1734C93.2414 25.278 93.1751 25.435 93.0426 25.6443C92.917 25.8465 92.7845 25.9791 92.645 26.0419ZM115.298 18.7595C116.958 18.9408 118.172 19.1466 118.939 19.3768C118.939 19.7605 118.859 20.043 118.698 20.2243C117.554 20.2941 116.327 20.4754 115.015 20.7684C114.827 22.2333 114.67 23.7469 114.544 25.3094C114.544 25.4001 114.433 25.5396 114.21 25.728C113.986 25.9093 113.795 26 113.634 26H108.758C109.693 22.6169 110.384 18.0968 110.83 12.4397C110.83 12.3491 110.945 12.213 111.175 12.0317C111.405 11.8503 111.601 11.7596 111.761 11.7596H116.616C116.086 14.0615 115.646 16.3948 115.298 18.7595ZM119.797 18.1003C119.629 17.047 119.312 15.9972 118.845 14.9509C118.377 13.9046 117.907 13.1198 117.432 12.5967C117.467 12.2619 117.568 11.9828 117.736 11.7596H121.534C121.485 12.4362 121.38 13.3465 121.22 14.4905C121.059 15.6275 120.889 16.5971 120.707 17.3993C120.679 17.5179 120.561 17.6643 120.351 17.8387C120.142 18.0131 119.957 18.1003 119.797 18.1003ZM119.316 21.6996C119.392 21.602 119.567 21.4625 119.839 21.2811C120.111 21.0997 120.324 21.0091 120.477 21.0091C120.24 23.0808 120.017 24.4933 119.807 25.2467C119.745 25.3862 119.619 25.5466 119.431 25.728C119.242 25.9093 119.089 26 118.97 26H115.13C116.846 24.8491 118.241 23.4156 119.316 21.6996ZM133.525 26H128.764C128.115 24.0887 127.107 21.7903 125.74 19.1048C125.042 17.7446 124.561 16.7854 124.296 16.2274C124.296 16.1367 124.408 16.0007 124.631 15.8193C124.861 15.631 125.053 15.5368 125.206 15.5368H129.978C130.591 17.4551 131.585 19.736 132.96 22.3797C133.657 23.726 134.152 24.7026 134.445 25.3094C134.445 25.4071 134.334 25.5466 134.11 25.728C133.887 25.9093 133.692 26 133.525 26ZM132.259 19.5756C132.468 18.9897 132.572 18.3444 132.572 17.6399C132.572 16.9284 132.503 16.4576 132.363 16.2274C132.37 16.1297 132.489 15.9902 132.719 15.8089C132.949 15.6275 133.148 15.5368 133.315 15.5368H136.664C136.447 15.7391 136.137 16.0181 135.732 16.3739C135.328 16.7296 135.028 16.9982 134.832 17.1795C134.295 17.6748 133.828 18.2433 133.43 18.885C133.368 18.9827 133.193 19.1222 132.907 19.3036C132.628 19.4849 132.412 19.5756 132.259 19.5756ZM126.232 21.323C125.918 22.0693 125.761 22.8122 125.761 23.5516C125.761 24.284 125.855 24.87 126.043 25.3094C126.036 25.4001 125.911 25.5396 125.667 25.728C125.43 25.9093 125.231 26 125.07 26H121.743C122.489 25.2467 123.114 24.5735 123.616 23.9806C124.118 23.3877 124.586 22.7285 125.018 22.0031C125.074 21.9054 125.248 21.7694 125.541 21.595C125.841 21.4136 126.071 21.323 126.232 21.323ZM136.894 30.3841C137.968 25.3617 138.676 20.6673 139.018 16.3006C139.018 16.2169 139.129 16.0879 139.353 15.9135C139.576 15.7321 139.83 15.6275 140.116 15.5996C140.402 15.5717 141.048 15.5299 142.052 15.4741C143.063 15.4113 143.789 15.3799 144.228 15.3799C143.468 18.6723 142.795 23.447 142.209 29.704C142.209 29.7946 142.094 29.9307 141.864 30.112C141.64 30.2934 141.452 30.3841 141.299 30.3841H136.894ZM143.873 26C144.403 25.6652 144.86 25.149 145.243 24.4515C145.955 23.147 146.311 21.6961 146.311 20.0988C146.311 18.5014 145.934 17.1482 145.181 16.0391C145.181 15.9344 145.289 15.7914 145.505 15.6101C145.721 15.4287 145.909 15.338 146.07 15.338C146.998 15.338 147.842 15.5264 148.602 15.903C149.362 16.2797 149.973 16.8343 150.433 17.5667C150.893 18.2921 151.124 19.1327 151.124 20.0883C151.124 21.8391 150.471 23.2621 149.167 24.3573C147.87 25.4524 146.105 26 143.873 26ZM163.02 15.5996C163.969 15.9275 164.687 16.3878 165.176 16.9807C165.671 17.5667 165.919 18.1945 165.919 18.8641C165.919 19.7779 165.524 20.5522 164.736 21.1869C163.948 21.8217 162.874 22.1391 161.514 22.1391C161.088 22.1391 160.621 22.0693 160.111 21.9298C160.851 21.4694 161.35 20.8696 161.608 20.1302C161.831 19.4884 161.943 18.7351 161.943 17.8701C161.943 17.7027 161.925 17.19 161.89 16.332C161.883 16.2414 162.023 16.0984 162.309 15.903C162.602 15.7077 162.839 15.6066 163.02 15.5996ZM161.325 15.4322C160.46 16.0181 159.773 16.7889 159.264 17.7446C158.762 18.7002 158.511 19.7221 158.511 20.8103C158.511 21.8984 158.929 22.7843 159.766 23.4679C160.603 24.1515 161.824 24.4933 163.428 24.4933C163.868 24.4933 164.339 24.4549 164.841 24.3782C164.513 24.8944 163.882 25.3269 162.947 25.6756C162.012 26.0174 161.032 26.1883 160.007 26.1883C158.981 26.1883 158.106 26.0872 157.381 25.8849C156.655 25.6756 156.006 25.3687 155.434 24.9641C154.869 24.5596 154.423 24.0329 154.095 23.3842C153.767 22.7285 153.603 22.01 153.603 21.2288C153.603 20.4406 153.725 19.7291 153.97 19.0943C154.214 18.4595 154.549 17.9155 154.974 17.4621C155.4 17.0086 155.895 16.618 156.46 16.2902C157.583 15.6554 158.877 15.338 160.342 15.338C160.704 15.338 161.032 15.3694 161.325 15.4322ZM172.102 26H167.708C168.433 22.9448 168.935 19.7186 169.214 16.3216C169.214 16.2379 169.326 16.1123 169.549 15.9449C169.772 15.7705 170.006 15.6624 170.25 15.6205C170.501 15.5787 171.108 15.5229 172.071 15.4531C173.04 15.3764 173.79 15.338 174.32 15.338C173.755 18.2607 173.319 21.5845 173.013 25.3094C173.013 25.4001 172.901 25.5396 172.678 25.728C172.455 25.9093 172.263 26 172.102 26ZM175.879 26.1046C175.475 25.714 175.273 25.2118 175.273 24.5979C175.273 23.9841 175.426 22.8122 175.733 21.0823C176.047 19.3524 176.204 18.2886 176.204 17.891C176.204 17.4865 176.106 17.197 175.911 17.0226C175.723 16.8412 175.475 16.7506 175.168 16.7506C175.231 16.332 175.349 16.0181 175.524 15.8089C175.782 15.6833 176.186 15.5682 176.737 15.4636C177.295 15.359 177.812 15.3066 178.286 15.3066C179.214 15.3066 179.908 15.5194 180.368 15.9449C180.836 16.3704 181.069 17.0435 181.069 17.9643C181.069 18.4805 180.958 19.3873 180.734 20.6847C180.511 21.9821 180.4 22.7773 180.4 23.0703C180.4 23.3633 180.41 23.583 180.431 23.7295C180.459 23.876 180.48 23.9911 180.494 24.0748C180.515 24.1585 180.563 24.2561 180.64 24.3677C180.717 24.4724 180.766 24.5386 180.787 24.5665C180.808 24.5875 180.877 24.6572 180.996 24.7758C181.115 24.8874 181.184 24.9537 181.205 24.9746C181.205 25.0723 181.104 25.2362 180.902 25.4664C180.7 25.6896 180.515 25.8361 180.347 25.9058C179.454 26.0384 177.965 26.1046 175.879 26.1046ZM189.712 15.2439C189.314 15.6205 189.115 16.0181 189.115 16.4367C189.115 17.4132 189.858 18.4247 191.344 19.471C192.014 19.9453 192.537 20.3499 192.914 20.6847C193.758 21.4381 194.18 22.2577 194.18 23.1436C194.18 24.0225 193.737 24.734 192.851 25.278C191.972 25.8152 190.737 26.0837 189.147 26.0837C189.328 25.6791 189.419 25.3129 189.419 24.9851C189.419 24.6572 189.325 24.3398 189.136 24.0329C188.955 23.719 188.718 23.433 188.425 23.1749C188.132 22.9169 187.807 22.6588 187.452 22.4007C187.096 22.1356 186.74 21.867 186.384 21.595C186.029 21.323 185.704 21.0439 185.411 20.758C184.749 20.1092 184.417 19.4082 184.417 18.6549C184.417 17.8248 184.724 17.1482 185.338 16.625C186.391 15.7391 187.849 15.2787 189.712 15.2439ZM191.334 15.2753C192.317 15.2753 193.161 15.4706 193.866 15.8612C194.57 16.2448 194.922 16.7157 194.922 17.2737C194.922 18.1387 194.113 18.6688 192.495 18.8641C192.509 18.8153 192.516 18.7386 192.516 18.6339C192.516 18.1038 192.348 17.6155 192.014 17.1691C191.679 16.7157 191.211 16.353 190.612 16.0809C190.612 15.9693 190.688 15.8158 190.842 15.6205C190.995 15.4252 191.159 15.3101 191.334 15.2753ZM187.316 26.0419C186.967 26.0698 186.709 26.0837 186.541 26.0837C185.53 26.0837 184.689 25.9198 184.02 25.5919C183.35 25.2571 183.015 24.8246 183.015 24.2945C183.015 23.2273 183.821 22.5541 185.432 22.2751C185.377 22.5751 185.352 22.8401 185.359 23.0703C185.373 23.2935 185.45 23.5167 185.589 23.74C185.736 23.9562 185.938 24.1515 186.196 24.3259C186.657 24.6328 187.229 24.9153 187.912 25.1734C187.912 25.278 187.846 25.435 187.713 25.6443C187.588 25.8465 187.455 25.9791 187.316 26.0419ZM205.898 15.5996C206.847 15.9275 207.565 16.3878 208.054 16.9807C208.549 17.5667 208.797 18.1945 208.797 18.8641C208.797 19.7779 208.402 20.5522 207.614 21.1869C206.826 21.8217 205.752 22.1391 204.392 22.1391C203.966 22.1391 203.499 22.0693 202.99 21.9298C203.729 21.4694 204.228 20.8696 204.486 20.1302C204.709 19.4884 204.821 18.7351 204.821 17.8701C204.821 17.7027 204.803 17.19 204.768 16.332C204.761 16.2414 204.901 16.0984 205.187 15.903C205.48 15.7077 205.717 15.6066 205.898 15.5996ZM204.203 15.4322C203.338 16.0181 202.651 16.7889 202.142 17.7446C201.64 18.7002 201.389 19.7221 201.389 20.8103C201.389 21.8984 201.807 22.7843 202.644 23.4679C203.481 24.1515 204.702 24.4933 206.306 24.4933C206.746 24.4933 207.217 24.4549 207.719 24.3782C207.391 24.8944 206.76 25.3269 205.825 25.6756C204.89 26.0174 203.91 26.1883 202.885 26.1883C201.86 26.1883 200.984 26.0872 200.259 25.8849C199.533 25.6756 198.884 25.3687 198.312 24.9641C197.747 24.5596 197.301 24.0329 196.973 23.3842C196.645 22.7285 196.481 22.01 196.481 21.2288C196.481 20.4406 196.604 19.7291 196.848 19.0943C197.092 18.4595 197.427 17.9155 197.852 17.4621C198.278 17.0086 198.773 16.618 199.338 16.2902C200.461 15.6554 201.755 15.338 203.22 15.338C203.582 15.338 203.91 15.3694 204.203 15.4322ZM232.381 26H227.766C227.808 24.284 227.829 22.5367 227.829 20.758C227.829 18.9792 227.742 16.9598 227.568 14.6998C227.805 14.2045 228.136 13.4512 228.562 12.4397C228.61 12.3281 228.736 12.1886 228.938 12.0212C229.14 11.8468 229.318 11.7596 229.472 11.7596H232.674C232.625 12.6804 232.6 13.7023 232.6 14.8253C232.6 18.341 232.834 21.8357 233.301 25.3094C233.301 25.4001 233.19 25.5396 232.967 25.728C232.743 25.9093 232.548 26 232.381 26ZM225.203 25.4559C225.154 25.5605 225.046 25.6791 224.878 25.8117C224.711 25.9372 224.579 26 224.481 26H222.817C222.524 24.2631 222.144 22.4355 221.677 20.5173C221.209 18.5991 220.746 17.0191 220.285 15.7775C220.313 15.617 220.404 15.1288 220.557 14.3126C220.718 13.4895 220.829 12.8652 220.892 12.4397C220.913 12.3421 221.032 12.2061 221.248 12.0317C221.464 11.8503 221.649 11.7596 221.802 11.7596H224.847C225.328 14.5498 225.726 16.4367 226.04 17.4202C226.361 18.3968 226.654 19.178 226.919 19.764C226.249 21.7659 225.677 23.6632 225.203 25.4559ZM220.055 18.4351C220.09 20.179 220.153 21.5113 220.243 22.4321C220.341 23.3528 220.547 24.3119 220.861 25.3094C220.861 25.4001 220.746 25.5396 220.515 25.728C220.292 25.9093 220.097 26 219.929 26H216.592C217.282 24.3538 217.823 23.0215 218.213 22.0031C218.604 20.9777 218.914 20.0151 219.145 19.1152C219.145 19.0246 219.256 18.8885 219.479 18.7072C219.703 18.5258 219.895 18.4351 220.055 18.4351ZM248.211 25.5815C246.851 25.8744 245.39 26.0209 243.827 26.0209C243.472 25.5396 243.294 25.0339 243.294 24.5038C243.294 23.9736 243.451 22.6309 243.765 20.4754C244.078 18.3131 244.239 16.8761 244.246 16.1646C244.246 16.0739 244.361 15.9379 244.591 15.7566C244.821 15.5752 245.013 15.4845 245.167 15.4845C246.659 15.4845 248.065 15.6833 249.383 16.0809C249.355 16.3041 249.17 17.1935 248.829 18.749C248.487 20.2976 248.316 21.5427 248.316 22.4844C248.316 23.4191 248.567 24.1376 249.069 24.6398C249.069 24.7374 248.972 24.9014 248.776 25.1316C248.581 25.3548 248.393 25.5047 248.211 25.5815ZM243.367 15.338C242.537 15.9519 241.906 16.7854 241.473 17.8387C241.048 18.892 240.835 19.9279 240.835 20.9463C240.835 21.9577 240.946 22.868 241.17 23.6772C241.4 24.4794 241.707 25.0165 242.09 25.2885C242.09 25.3931 241.979 25.5396 241.756 25.728C241.532 25.9093 241.341 26 241.18 26C239.583 26 238.299 25.5989 237.33 24.7967C236.367 23.9946 235.886 22.8994 235.886 21.5113C235.886 19.7884 236.538 18.341 237.842 17.1691C238.47 16.6041 239.258 16.1576 240.207 15.8298C241.163 15.502 242.216 15.338 243.367 15.338ZM256.08 26H251.685C252.411 22.9448 252.913 19.7186 253.192 16.3216C253.192 16.2379 253.303 16.1123 253.527 15.9449C253.75 15.7705 253.984 15.6624 254.228 15.6205C254.479 15.5787 255.086 15.5229 256.048 15.4531C257.018 15.3764 257.768 15.338 258.298 15.338C257.733 18.2607 257.297 21.5845 256.99 25.3094C256.99 25.4001 256.878 25.5396 256.655 25.728C256.432 25.9093 256.24 26 256.08 26ZM259.857 26.1046C259.452 25.714 259.25 25.2118 259.25 24.5979C259.25 23.9841 259.403 22.8122 259.71 21.0823C260.024 19.3524 260.181 18.2886 260.181 17.891C260.181 17.4865 260.084 17.197 259.888 17.0226C259.7 16.8412 259.452 16.7506 259.145 16.7506C259.208 16.332 259.327 16.0181 259.501 15.8089C259.759 15.6833 260.164 15.5682 260.715 15.4636C261.273 15.359 261.789 15.3066 262.263 15.3066C263.191 15.3066 263.885 15.5194 264.346 15.9449C264.813 16.3704 265.047 17.0435 265.047 17.9643C265.047 18.4805 264.935 19.3873 264.712 20.6847C264.489 21.9821 264.377 22.7773 264.377 23.0703C264.377 23.3633 264.387 23.583 264.408 23.7295C264.436 23.876 264.457 23.9911 264.471 24.0748C264.492 24.1585 264.541 24.2561 264.618 24.3677C264.694 24.4724 264.743 24.5386 264.764 24.5665C264.785 24.5875 264.855 24.6572 264.973 24.7758C265.092 24.8874 265.162 24.9537 265.183 24.9746C265.183 25.0723 265.081 25.2362 264.879 25.4664C264.677 25.6896 264.492 25.8361 264.325 25.9058C263.432 26.0384 261.943 26.1046 259.857 26.1046ZM280.375 25.5815C279.015 25.8744 277.554 26.0209 275.991 26.0209C275.635 25.5396 275.457 25.0339 275.457 24.5038C275.457 23.9736 275.614 22.6309 275.928 20.4754C276.242 18.3131 276.403 16.8761 276.41 16.1646C276.41 16.0739 276.525 15.9379 276.755 15.7566C276.985 15.5752 277.177 15.4845 277.33 15.4845C278.823 15.4845 280.229 15.6833 281.547 16.0809C281.519 16.3041 281.334 17.1935 280.992 18.749C280.651 20.2976 280.48 21.5427 280.48 22.4844C280.48 23.4191 280.731 24.1376 281.233 24.6398C281.233 24.7374 281.135 24.9014 280.94 25.1316C280.745 25.3548 280.557 25.5047 280.375 25.5815ZM275.531 15.338C274.701 15.9519 274.069 16.7854 273.637 17.8387C273.211 18.892 272.999 19.9279 272.999 20.9463C272.999 21.9577 273.11 22.868 273.333 23.6772C273.564 24.4794 273.871 25.0165 274.254 25.2885C274.254 25.3931 274.143 25.5396 273.919 25.728C273.696 25.9093 273.504 26 273.344 26C271.747 26 270.463 25.5989 269.493 24.7967C268.531 23.9946 268.05 22.8994 268.05 21.5113C268.05 19.7884 268.702 18.341 270.006 17.1691C270.634 16.6041 271.422 16.1576 272.371 15.8298C273.326 15.502 274.38 15.338 275.531 15.338ZM291.937 15.338C291.198 15.8751 290.556 16.6634 290.012 17.7027C289.468 18.7351 289.196 19.757 289.196 20.7684C289.196 22.0728 289.635 23.0808 290.514 23.7923C290.514 23.8969 290.402 24.0434 290.179 24.2317C289.956 24.4131 289.764 24.5038 289.604 24.5038C287.03 24.5038 285.404 23.6353 284.728 21.8984C284.539 21.4171 284.445 20.8765 284.445 20.2766C284.445 19.6698 284.578 19.0734 284.843 18.4874C285.108 17.9015 285.495 17.3714 286.004 16.897C286.514 16.4157 287.183 16.0321 288.013 15.7461C288.843 15.4601 289.782 15.3171 290.828 15.3171C291.065 15.3171 291.435 15.3241 291.937 15.338ZM292.586 16.1437C292.586 16.053 292.697 15.91 292.92 15.7147C293.144 15.5194 293.339 15.4217 293.506 15.4217C293.918 15.4217 294.521 15.4775 295.317 15.5891C296.112 15.6938 296.879 15.8577 297.618 16.0809C297.193 18.1456 296.708 21.3544 296.164 25.707C295.732 29.1599 293.824 30.8863 290.441 30.8863C289.925 30.8863 289.454 30.8584 289.028 30.8026C289.635 30.2376 290.109 29.5505 290.451 28.7414C290.842 27.8066 291.107 27.0184 291.246 26.3767C291.714 24.2422 292.052 22.2193 292.261 20.308C292.478 18.3898 292.586 17.0017 292.586 16.1437ZM287.208 30.5515C286.364 30.4678 285.642 30.2062 285.042 29.7667C284.442 29.3273 284.142 28.846 284.142 28.3228C284.142 27.7997 284.348 27.3567 284.759 26.994C285.527 26.3104 286.604 25.9686 287.992 25.9686C288.446 25.9686 288.871 26.014 289.269 26.1046C288.899 26.4743 288.603 26.9277 288.379 27.4648C288.156 28.002 288.045 28.4798 288.045 28.8983C288.045 29.3168 288.073 29.6342 288.128 29.8504C288.128 29.9551 288.013 30.0981 287.783 30.2794C287.56 30.4608 287.368 30.5515 287.208 30.5515ZM309.526 15.5996C310.474 15.9275 311.193 16.3878 311.681 16.9807C312.176 17.5667 312.424 18.1945 312.424 18.8641C312.424 19.7779 312.03 20.5522 311.241 21.1869C310.453 21.8217 309.379 22.1391 308.019 22.1391C307.593 22.1391 307.126 22.0693 306.617 21.9298C307.356 21.4694 307.855 20.8696 308.113 20.1302C308.336 19.4884 308.448 18.7351 308.448 17.8701C308.448 17.7027 308.43 17.19 308.396 16.332C308.389 16.2414 308.528 16.0984 308.814 15.903C309.107 15.7077 309.344 15.6066 309.526 15.5996ZM307.831 15.4322C306.966 16.0181 306.278 16.7889 305.769 17.7446C305.267 18.7002 305.016 19.7221 305.016 20.8103C305.016 21.8984 305.434 22.7843 306.271 23.4679C307.109 24.1515 308.329 24.4933 309.934 24.4933C310.373 24.4933 310.844 24.4549 311.346 24.3782C311.018 24.8944 310.387 25.3269 309.452 25.6756C308.518 26.0174 307.538 26.1883 306.512 26.1883C305.487 26.1883 304.611 26.0872 303.886 25.8849C303.16 25.6756 302.512 25.3687 301.94 24.9641C301.375 24.5596 300.928 24.0329 300.6 23.3842C300.273 22.7285 300.109 22.01 300.109 21.2288C300.109 20.4406 300.231 19.7291 300.475 19.0943C300.719 18.4595 301.054 17.9155 301.479 17.4621C301.905 17.0086 302.4 16.618 302.965 16.2902C304.088 15.6554 305.382 15.338 306.847 15.338C307.21 15.338 307.538 15.3694 307.831 15.4322ZM324.592 15.338C325.388 15.338 325.785 15.8368 325.785 16.8343C325.785 17.4551 325.677 18.0759 325.461 18.6967C325.245 19.3105 324.973 19.7814 324.645 20.1092C324.184 19.7884 323.616 19.5233 322.939 19.314C322.27 19.0978 321.628 18.9792 321.014 18.9583C321.07 18.5746 321.181 18.1666 321.349 17.7341C322.472 16.1367 323.553 15.338 324.592 15.338ZM318.325 26H313.941C314.652 22.9587 315.155 19.7326 315.448 16.3216C315.448 16.2448 315.559 16.1193 315.783 15.9449C316.013 15.7705 316.246 15.6624 316.484 15.6205C316.728 15.5787 317.352 15.5229 318.356 15.4531C319.368 15.3764 320.142 15.338 320.679 15.338C319.989 18.7909 319.507 22.1147 319.235 25.3094C319.235 25.4001 319.124 25.5396 318.901 25.728C318.677 25.9093 318.485 26 318.325 26Z" fill="black"/>
<defs>
<filter id="filter0_i_1_160" x="24.2545" y="22.5453" width="15.0418" height="8.00043" filterUnits="userSpaceOnUse" color-interpolation-filters="sRGB">
<feFlood flood-opacity="0" result="BackgroundImageFix"/>
<feBlend mode="normal" in="SourceGraphic" in2="BackgroundImageFix" result="shape"/>
<feColorMatrix in="SourceAlpha" type="matrix" values="0 0 0 0 0 0 0 0 0 0 0 0 0 0 0 0 0 0 127 0" result="hardAlpha"/>
<feOffset dy="0.282902"/>
<feGaussianBlur stdDeviation="0.141451"/>
<feComposite in2="hardAlpha" operator="arithmetic" k2="-1" k3="1"/>
<feColorMatrix type="matrix" values="0 0 0 0 0 0 0 0 0 0 0 0 0 0 0 0 0 0 0.25 0"/>
<feBlend mode="normal" in2="shape" result="effect1_innerShadow_1_160"/>
</filter>
<filter id="filter1_d_1_160" x="26.0563" y="24.1213" width="5.22218" height="4.89399" filterUnits="userSpaceOnUse" color-interpolation-filters="sRGB">
<feFlood flood-opacity="0" result="BackgroundImageFix"/>
<feColorMatrix in="SourceAlpha" type="matrix" values="0 0 0 0 0 0 0 0 0 0 0 0 0 0 0 0 0 0 127 0" result="hardAlpha"/>
<feOffset dy="0.282902"/>
<feGaussianBlur stdDeviation="0.141451"/>
<feComposite in2="hardAlpha" operator="out"/>
<feColorMatrix type="matrix" values="0 0 0 0 0 0 0 0 0 0 0 0 0 0 0 0 0 0 0.25 0"/>
<feBlend mode="normal" in2="BackgroundImageFix" result="effect1_dropShadow_1_160"/>
<feBlend mode="normal" in="SourceGraphic" in2="effect1_dropShadow_1_160" result="shape"/>
</filter>
<filter id="filter2_i_1_160" x="3.08167" y="17.7418" width="17.9848" height="17.608" filterUnits="userSpaceOnUse" color-interpolation-filters="sRGB">
<feFlood flood-opacity="0" result="BackgroundImageFix"/>
<feBlend mode="normal" in="SourceGraphic" in2="BackgroundImageFix" result="shape"/>
<feColorMatrix in="SourceAlpha" type="matrix" values="0 0 0 0 0 0 0 0 0 0 0 0 0 0 0 0 0 0 127 0" result="hardAlpha"/>
<feOffset dy="0.282902"/>
<feGaussianBlur stdDeviation="0.141451"/>
<feComposite in2="hardAlpha" operator="arithmetic" k2="-1" k3="1"/>
<feColorMatrix type="matrix" values="0 0 0 0 0 0 0 0 0 0 0 0 0 0 0 0 0 0 0.25 0"/>
<feBlend mode="normal" in2="shape" result="effect1_innerShadow_1_160"/>
</filter>
<linearGradient id="paint0_linear_1_160" x1="4.69875" y1="17.7418" x2="18.801" y2="35.585" gradientUnits="userSpaceOnUse">
<stop stop-color="#28B2FB"/>
<stop offset="1" stop-color="#1CDC87"/>
</linearGradient>
</defs>
</svg>
